<svg xmlns="http://www.w3.org/2000/svg" viewBox="0 0 1312 320" width="1312" height="320" class="fig" role="img">
  <!-- colours: ink #14171a · line #c6c0b6 · grid #e4dfd5 · muted #96928a · flag #bc4a34 · bg #ffffff -->
  <style>
    .fig text { font-family:"JetBrains Mono",ui-monospace,"SF Mono",Menlo,monospace;
                fill:#14171a; }
    .t   { font-size:19px; font-weight:700; letter-spacing:.06em; }
    .l   { font-size:14px; }
    .s   { font-size:11px; letter-spacing:.08em; fill:#96928a; }
    .n   { font-size:15px; font-weight:700; }
    .bg  { fill:#ffffff; }
    .ink { fill:#14171a; }
    .fl  { fill:#bc4a34; }
    .pa  { fill:#efece6; }
    .box { fill:none; stroke:#c6c0b6; }
    .gr  { stroke:#e4dfd5; stroke-width:1; }
    .cen { fill:none; stroke:#c6c0b6; stroke-width:1; }
    .dim { fill:none; stroke:#14171a; stroke-width:1; }
    .hi  { fill:none; stroke:#bc4a34; stroke-width:2.5; }
  </style>
<defs><path id="coil" d="M90.00 50.00L89.92 51.07L89.81 52.14L89.68 53.20L89.52 54.25L89.32 55.30L89.11 56.34L88.86 57.38L88.58 58.40L88.28 59.42L87.96 60.42L87.60 61.42L87.22 62.40L86.82 63.37L86.38 64.33L85.93 65.27L85.45 66.20L84.94 67.12L84.42 68.02L83.87 68.90L83.29 69.77L82.70 70.62L82.08 71.46L81.44 72.27L80.78 73.07L80.10 73.84L79.40 74.60L78.69 75.34L77.95 76.05L77.20 76.75L76.43 77.42L75.64 78.07L74.83 78.70L74.02 79.31L73.18 79.89L72.34 80.45L71.48 80.98L70.60 81.49L69.72 81.98L68.82 82.44L67.92 82.88L67.00 83.29L66.07 83.67L65.14 84.03L64.20 84.37L63.25 84.68L62.29 84.96L61.33 85.21L60.37 85.44L59.40 85.65L58.43 85.82L57.45 85.97L56.47 86.10L55.49 86.20L54.51 86.27L53.53 86.31L52.56 86.33L51.58 86.32L50.60 86.28L49.63 86.22L48.66 86.14L47.70 86.02L46.74 85.89L45.79 85.72L44.84 85.53L43.90 85.32L42.97 85.08L42.05 84.82L41.13 84.53L40.23 84.22L39.34 83.88L38.45 83.53L37.58 83.14L36.72 82.74L35.87 82.31L35.04 81.87L34.22 81.40L33.42 80.91L32.63 80.40L31.85 79.86L31.09 79.31L30.35 78.74L29.62 78.15L28.92 77.55L28.23 76.92L27.55 76.28L26.90 75.62L26.27 74.95L25.65 74.26L25.06 73.55L24.48 72.83L23.93 72.10L23.40 71.35L22.88 70.60L22.39 69.82L21.93 69.04L21.48 68.25L21.06 67.44L20.65 66.63L20.28 65.81L19.92 64.98L19.59 64.14L19.28 63.29L18.99 62.44L18.73 61.59L18.49 60.72L18.28 59.86L18.09 58.98L17.92 58.11L17.77 57.23L17.66 56.36L17.56 55.48L17.49 54.60L17.44 53.72L17.42 52.84L17.42 51.96L17.44 51.08L17.49 50.21L17.56 49.34L17.65 48.47L17.76 47.61L17.90 46.76L18.07 45.91L18.25 45.06L18.46 44.22L18.69 43.39L18.94 42.57L19.21 41.76L19.50 40.96L19.82 40.16L20.15 39.38L20.50 38.60L20.88 37.84L21.27 37.09L21.69 36.36L22.12 35.63L22.57 34.92L23.04 34.22L23.53 33.54L24.03 32.87L24.55 32.22L25.09 31.58L25.64 30.96L26.21 30.36L26.79 29.77L27.39 29.20L28.00 28.64L28.63 28.11L29.26 27.59L29.91 27.09L30.58 26.61L31.25 26.15L31.93 25.70L32.63 25.28L33.33 24.88L34.04 24.50L34.77 24.13L35.50 23.79L36.23 23.47L36.98 23.16L37.73 22.88L38.48 22.62L39.24 22.38L40.01 22.17L40.78 21.97L41.55 21.79L42.33 21.64L43.10 21.51L43.88 21.39L44.66 21.30L45.44 21.23L46.22 21.19L47.00 21.16L47.78 21.15L48.56 21.17L49.33 21.20L50.11 21.26L50.87 21.34L51.64 21.43L52.40 21.55L53.15 21.69L53.90 21.85L54.64 22.03L55.38 22.22L56.11 22.44L56.83 22.67L57.54 22.93L58.24 23.20L58.94 23.49L59.62 23.80L60.30 24.13L60.96 24.47L61.62 24.83L62.26 25.21L62.89 25.61L63.51 26.02L64.11 26.44L64.70 26.88L65.28 27.34L65.84 27.81L66.40 28.29L66.93 28.79L67.45 29.30L67.96 29.82L68.45 30.35L68.92 30.90L69.38 31.46L69.82 32.03L70.25 32.61L70.66 33.20L71.05 33.80L71.43 34.40L71.78 35.02L72.12 35.64L72.45 36.27L72.75 36.91L73.04 37.56L73.30 38.21L73.55 38.86L73.79 39.52L74.00 40.19L74.19 40.86L74.37 41.53L74.53 42.21L74.66 42.88L74.78 43.56L74.89 44.24L74.97 44.93L75.03 45.61L75.08 46.29L75.10 46.97L75.11 47.65L75.10 48.33L75.08 49.00L75.03 49.68L74.96 50.35L74.88 51.01L74.78 51.67L74.67 52.33L74.53 52.98L74.38 53.63L74.21 54.27L74.02 54.91L73.82 55.53L73.60 56.15L73.37 56.77L73.12 57.37L72.85 57.97L72.57 58.55L72.27 59.13L71.96 59.70L71.64 60.25L71.30 60.80L70.94 61.34L70.58 61.86L70.20 62.38L69.80 62.88L69.40 63.37L68.98 63.85L68.55 64.31L68.11 64.76L67.66 65.20L67.20 65.62L66.73 66.04L66.25 66.43L65.76 66.82L65.26 67.18L64.76 67.54L64.24 67.88L63.72 68.20L63.19 68.51L62.65 68.80L62.11 69.08L61.56 69.34L61.01 69.59L60.45 69.82L59.89 70.04L59.32 70.24L58.75 70.42L58.17 70.59L57.60 70.74L57.02 70.88L56.44 71.00L55.86 71.10L55.27 71.19L54.69 71.26L54.11 71.31L53.52 71.35L52.94 71.38L52.36 71.38L51.78 71.37L51.20 71.35L50.63 71.31L50.06 71.26L49.49 71.19L48.93 71.10L48.37 71.00L47.81 70.89L47.26 70.76L46.72 70.61L46.18 70.45L45.64 70.28L45.12 70.10L44.60 69.90L44.08 69.68L43.58 69.46L43.08 69.22L42.59 68.97L42.11 68.70L41.64 68.43L41.18 68.14L40.72 67.84L40.28 67.53L39.85 67.20L39.42 66.87L39.01 66.53L38.61 66.18L38.22 65.81L37.84 65.44L37.47 65.06L37.11 64.67L36.77 64.28L36.43 63.87L36.11 63.46L35.80 63.04L35.51 62.61L35.23 62.18L34.96 61.74L34.70 61.29L34.45 60.84L34.22 60.39L34.00 59.93L33.80 59.46L33.61 58.99L33.43 58.52L33.26 58.05L33.11 57.57L32.97 57.09L32.85 56.61L32.74 56.12L32.64 55.64L40.25 53.17L40.28 53.45L40.32 53.73L40.36 54.01L40.41 54.30L40.47 54.58L40.54 54.86L40.62 55.15L40.71 55.43L40.80 55.71L40.90 55.99L41.02 56.27L41.13 56.54L41.26 56.82L41.40 57.09L41.54 57.36L41.70 57.63L41.86 57.89L42.03 58.15L42.21 58.41L42.39 58.66L42.59 58.91L42.79 59.16L43.00 59.40L43.21 59.64L43.44 59.87L43.67 60.09L43.91 60.31L44.16 60.53L44.41 60.74L44.68 60.94L44.95 61.14L45.22 61.33L45.50 61.51L45.79 61.69L46.09 61.86L46.39 62.02L46.69 62.18L47.01 62.32L47.32 62.46L47.65 62.59L47.97 62.71L48.31 62.83L48.65 62.93L48.99 63.03L49.33 63.11L49.68 63.19L50.04 63.26L50.39 63.31L50.75 63.36L51.12 63.40L51.48 63.43L51.85 63.45L52.22 63.46L52.59 63.46L52.97 63.45L53.34 63.42L53.72 63.39L54.09 63.35L54.47 63.29L54.85 63.23L55.22 63.15L55.60 63.07L55.97 62.97L56.35 62.86L56.72 62.75L57.09 62.62L57.46 62.48L57.82 62.33L58.19 62.17L58.55 61.99L58.90 61.81L59.26 61.62L59.61 61.42L59.95 61.20L60.29 60.98L60.63 60.74L60.96 60.50L61.28 60.25L61.60 59.98L61.91 59.71L62.22 59.42L62.52 59.13L62.81 58.83L63.10 58.52L63.38 58.20L63.65 57.87L63.91 57.53L64.16 57.18L64.41 56.83L64.64 56.47L64.87 56.10L65.09 55.72L65.30 55.33L65.49 54.94L65.68 54.54L65.86 54.13L66.03 53.72L66.19 53.31L66.33 52.88L66.47 52.45L66.59 52.02L66.70 51.58L66.80 51.13L66.89 50.69L66.97 50.24L67.03 49.78L67.08 49.32L67.12 48.86L67.15 48.40L67.16 47.93L67.16 47.46L67.15 46.99L67.13 46.52L67.09 46.05L67.04 45.57L66.98 45.10L66.90 44.63L66.81 44.16L66.71 43.69L66.59 43.22L66.46 42.75L66.32 42.28L66.17 41.82L66.00 41.36L65.82 40.90L65.62 40.45L65.41 40.00L65.19 39.55L64.96 39.11L64.71 38.67L64.45 38.24L64.18 37.82L63.90 37.40L63.60 36.99L63.29 36.58L62.97 36.19L62.64 35.80L62.30 35.41L61.94 35.04L61.57 34.67L61.20 34.32L60.81 33.97L60.41 33.63L60.00 33.30L59.58 32.99L59.15 32.68L58.71 32.38L58.26 32.10L57.81 31.82L57.34 31.56L56.87 31.31L56.38 31.07L55.89 30.85L55.39 30.64L54.89 30.44L54.38 30.25L53.86 30.08L53.33 29.92L52.80 29.77L52.27 29.64L51.73 29.52L51.18 29.42L50.63 29.33L50.08 29.26L49.52 29.20L48.96 29.16L48.40 29.13L47.83 29.12L47.26 29.12L46.70 29.14L46.13 29.17L45.56 29.22L44.99 29.28L44.42 29.36L43.85 29.46L43.28 29.57L42.71 29.70L42.15 29.84L41.58 30.00L41.03 30.17L40.47 30.36L39.92 30.57L39.37 30.79L38.83 31.03L38.29 31.28L37.75 31.54L37.23 31.83L36.71 32.12L36.19 32.44L35.69 32.76L35.19 33.11L34.70 33.46L34.22 33.83L33.74 34.22L33.28 34.61L32.82 35.02L32.38 35.45L31.94 35.89L31.52 36.34L31.11 36.80L30.71 37.28L30.32 37.77L29.95 38.26L29.58 38.78L29.23 39.30L28.89 39.83L28.57 40.37L28.26 40.93L27.97 41.49L27.69 42.06L27.42 42.64L27.17 43.23L26.94 43.83L26.72 44.43L26.51 45.05L26.33 45.67L26.16 46.29L26.00 46.92L25.86 47.56L25.74 48.20L25.64 48.85L25.55 49.50L25.49 50.16L25.43 50.82L25.40 51.48L25.39 52.14L25.39 52.81L25.41 53.48L25.45 54.14L25.51 54.81L25.58 55.48L25.67 56.15L25.79 56.82L25.92 57.48L26.06 58.15L26.23 58.81L26.42 59.46L26.62 60.12L26.84 60.77L27.08 61.41L27.34 62.05L27.61 62.69L27.91 63.31L28.22 63.94L28.55 64.55L28.89 65.16L29.25 65.76L29.63 66.35L30.03 66.93L30.44 67.50L30.87 68.06L31.32 68.61L31.78 69.15L32.26 69.68L32.75 70.20L33.26 70.70L33.78 71.19L34.31 71.67L34.86 72.14L35.43 72.59L36.01 73.03L36.60 73.45L37.20 73.86L37.81 74.25L38.44 74.62L39.08 74.98L39.73 75.33L40.39 75.65L41.06 75.96L41.74 76.25L42.43 76.53L43.12 76.78L43.83 77.02L44.54 77.24L45.26 77.44L45.99 77.62L46.73 77.78L47.46 77.92L48.21 78.04L48.96 78.14L49.71 78.22L50.47 78.29L51.23 78.33L51.99 78.35L52.76 78.35L53.53 78.33L54.29 78.29L55.06 78.22L55.83 78.14L56.59 78.04L57.36 77.91L58.12 77.77L58.88 77.60L59.64 77.41L60.39 77.20L61.14 76.97L61.89 76.72L62.63 76.45L63.36 76.16L64.09 75.85L64.81 75.52L65.52 75.17L66.22 74.80L66.92 74.41L67.60 74.00L68.28 73.57L68.95 73.12L69.60 72.65L70.24 72.16L70.87 71.66L71.49 71.14L72.10 70.60L72.69 70.04L73.27 69.47L73.83 68.88L74.38 68.27L74.91 67.65L75.43 67.01L75.93 66.35L76.41 65.69L76.88 65.00L77.33 64.31L77.76 63.60L78.17 62.88L78.57 62.14L78.94 61.40L79.30 60.64L79.63 59.87L79.95 59.09L80.24 58.30L80.51 57.51L80.77 56.70L81.00 55.88L81.21 55.06L81.40 54.23L81.56 53.40L81.71 52.55L81.83 51.71L81.92 50.86L82.00 50.00Z"/><path id="slot" d="M89.73 54.60L89.52 56.20L89.23 57.79L88.89 59.36L88.48 60.93L88.01 62.47L87.47 63.99L86.88 65.49L86.22 66.97L85.51 68.41L84.74 69.83L83.91 71.22L83.03 72.57L82.09 73.88L81.10 75.16L80.06 76.39L78.97 77.58L77.83 78.73L76.65 79.83L75.43 80.88L74.16 81.88L72.85 82.83L71.51 83.72L70.13 84.56L68.72 85.35L67.28 86.07L65.81 86.74L64.32 87.35L62.80 87.90L61.26 88.38L59.70 88.81L58.13 89.17L56.54 89.46L54.95 89.69L53.34 89.86L51.73 89.96L50.12 90.00L48.50 89.97L46.89 89.88L45.28 89.72L43.69 89.50L42.10 89.21L40.52 88.86L38.96 88.45L37.42 87.97L35.90 87.43L34.40 86.83L32.93 86.17L31.48 85.46L30.07 84.68L28.68 83.85L27.34 82.96L26.03 82.02L24.75 81.03L23.52 79.98L22.33 78.89L21.19 77.75L20.10 76.56L19.05 75.34L18.05 74.07L17.11 72.76L16.21 71.41L15.38 70.03L14.60 68.62L13.88 67.18L13.21 65.71L12.61 64.21L12.07 62.69L11.59 61.15L11.17 59.59L10.81 58.02L10.52 56.43L10.29 54.83L10.13 53.22L10.03 51.61L10.00 50.00L10.03 48.39L10.13 46.78L10.29 45.17L10.52 43.57L10.81 41.98L11.17 40.41L11.59 38.85L12.07 37.31L12.61 35.79L13.21 34.29L13.88 32.82L14.60 31.38L15.38 29.97L16.21 28.59L17.11 27.24L18.05 25.93L19.05 24.66L20.10 23.44L21.19 22.25L22.33 21.11L23.52 20.02L24.75 18.97L26.03 17.98L27.34 17.04L28.68 16.15L30.07 15.32L31.48 14.54L32.93 13.83L34.40 13.17L35.90 12.57L37.42 12.03L38.96 11.55L40.52 11.14L42.10 10.79L43.69 10.50L45.28 10.28L46.89 10.12L48.50 10.03L50.12 10.00L51.73 10.04L53.34 10.14L54.95 10.31L56.54 10.54L58.13 10.83L59.70 11.19L61.26 11.62L62.80 12.10L64.32 12.65L65.81 13.26L67.28 13.93L68.72 14.65L70.13 15.44L71.51 16.28L72.85 17.17L74.16 18.12L75.43 19.12L76.65 20.17L77.83 21.27L78.97 22.42L80.06 23.61L81.10 24.84L82.09 26.12L83.03 27.43L83.91 28.78L84.74 30.17L85.51 31.59L86.22 33.03L86.88 34.51L87.47 36.01L88.01 37.53L88.48 39.07L88.89 40.64L89.23 42.21L89.52 43.80L89.73 45.40L76.61 45.40L76.40 44.35L76.16 43.31L75.87 42.28L75.55 41.26L75.18 40.26L74.77 39.27L74.33 38.29L73.85 37.34L73.33 36.41L72.77 35.49L72.18 34.60L71.55 33.74L70.89 32.90L70.20 32.08L69.47 31.30L68.72 30.54L67.93 29.81L67.12 29.12L66.28 28.46L65.41 27.83L64.52 27.24L63.61 26.68L62.68 26.16L61.72 25.68L60.75 25.23L59.76 24.83L58.76 24.46L57.74 24.13L56.71 23.85L55.67 23.60L54.62 23.40L53.56 23.24L52.50 23.12L51.43 23.04L50.36 23.00L49.29 23.01L48.22 23.06L47.16 23.15L46.10 23.28L45.04 23.46L44.00 23.68L42.96 23.93L41.93 24.23L40.92 24.57L39.92 24.95L38.94 25.37L37.97 25.83L37.02 26.32L36.09 26.86L35.19 27.43L34.31 28.03L33.45 28.67L32.62 29.34L31.81 30.04L31.04 30.78L30.29 31.55L29.58 32.34L28.89 33.16L28.24 34.01L27.63 34.89L27.05 35.78L26.50 36.70L25.99 37.65L25.52 38.61L25.09 39.58L24.70 40.58L24.34 41.59L24.03 42.61L23.76 43.64L23.53 44.69L23.34 45.74L23.19 46.80L23.08 47.86L23.02 48.93L23.00 50.00L23.02 51.07L23.08 52.14L23.19 53.20L23.34 54.26L23.53 55.31L23.76 56.36L24.03 57.39L24.34 58.41L24.70 59.42L25.09 60.42L25.52 61.39L25.99 62.35L26.50 63.30L27.05 64.22L27.63 65.11L28.24 65.99L28.89 66.84L29.58 67.66L30.29 68.45L31.04 69.22L31.81 69.96L32.62 70.66L33.45 71.33L34.31 71.97L35.19 72.57L36.09 73.14L37.02 73.68L37.97 74.17L38.94 74.63L39.92 75.05L40.92 75.43L41.93 75.77L42.96 76.07L44.00 76.32L45.04 76.54L46.10 76.72L47.16 76.85L48.22 76.94L49.29 76.99L50.36 77.00L51.43 76.96L52.50 76.88L53.56 76.76L54.62 76.60L55.67 76.40L56.71 76.15L57.74 75.87L58.76 75.54L59.76 75.17L60.75 74.77L61.72 74.32L62.68 73.84L63.61 73.32L64.52 72.76L65.41 72.17L66.28 71.54L67.12 70.88L67.93 70.19L68.72 69.46L69.47 68.70L70.20 67.92L70.89 67.10L71.55 66.26L72.18 65.40L72.77 64.51L73.33 63.59L73.85 62.66L74.33 61.71L74.77 60.73L75.18 59.74L75.55 58.74L75.87 57.72L76.16 56.69L76.40 55.65L76.61 54.60Z"/><path id="f0" d="M89.73 54.60L89.52 56.20L89.23 57.79L88.89 59.36L88.48 60.93L88.01 62.47L87.47 63.99L86.88 65.49L86.22 66.97L85.51 68.41L84.74 69.83L83.91 71.22L83.03 72.57L82.09 73.88L81.10 75.16L80.06 76.39L78.97 77.58L77.83 78.73L76.65 79.83L75.43 80.88L74.16 81.88L72.85 82.83L71.51 83.72L70.13 84.56L68.72 85.35L67.28 86.07L65.81 86.74L64.32 87.35L62.80 87.90L61.26 88.38L59.70 88.81L58.13 89.17L56.54 89.46L54.95 89.69L53.34 89.86L51.73 89.96L50.12 90.00L48.50 89.97L46.89 89.88L45.28 89.72L43.69 89.50L42.10 89.21L40.52 88.86L38.96 88.45L37.42 87.97L35.90 87.43L34.40 86.83L32.93 86.17L31.48 85.46L30.07 84.68L28.68 83.85L27.34 82.96L26.03 82.02L24.75 81.03L23.52 79.98L22.33 78.89L21.19 77.75L20.10 76.56L19.05 75.34L18.05 74.07L17.11 72.76L16.21 71.41L15.38 70.03L14.60 68.62L13.88 67.18L13.21 65.71L12.61 64.21L12.07 62.69L11.59 61.15L11.17 59.59L10.81 58.02L10.52 56.43L10.29 54.83L10.13 53.22L10.03 51.61L10.00 50.00L10.03 48.39L10.13 46.78L10.29 45.17L10.52 43.57L10.81 41.98L11.17 40.41L11.59 38.85L12.07 37.31L12.61 35.79L13.21 34.29L13.88 32.82L14.60 31.38L15.38 29.97L16.21 28.59L17.11 27.24L18.05 25.93L19.05 24.66L20.10 23.44L21.19 22.25L22.33 21.11L23.52 20.02L24.75 18.97L26.03 17.98L27.34 17.04L28.68 16.15L30.07 15.32L31.48 14.54L32.93 13.83L34.40 13.17L35.90 12.57L37.42 12.03L38.96 11.55L40.52 11.14L42.10 10.79L43.69 10.50L45.28 10.28L46.89 10.12L48.50 10.03L50.12 10.00L51.73 10.04L53.34 10.14L54.95 10.31L56.54 10.54L58.13 10.83L59.70 11.19L61.26 11.62L62.80 12.10L64.32 12.65L65.81 13.26L67.28 13.93L68.72 14.65L70.13 15.44L71.51 16.28L72.85 17.17L74.16 18.12L75.43 19.12L76.65 20.17L77.83 21.27L78.97 22.42L80.06 23.61L81.10 24.84L82.09 26.12L83.03 27.43L83.91 28.78L84.74 30.17L85.51 31.59L86.22 33.03L86.88 34.51L87.47 36.01L88.01 37.53L88.48 39.07L88.89 40.64L89.23 42.21L89.52 43.80L89.73 45.40L76.61 45.40L76.40 44.35L76.16 43.31L75.87 42.28L75.55 41.26L75.18 40.26L74.77 39.27L74.33 38.29L73.85 37.34L73.33 36.41L72.77 35.49L72.18 34.60L71.55 33.74L70.89 32.90L70.20 32.08L69.47 31.30L68.72 30.54L67.93 29.81L67.12 29.12L66.28 28.46L65.41 27.83L64.52 27.24L63.61 26.68L62.68 26.16L61.72 25.68L60.75 25.23L59.76 24.83L58.76 24.46L57.74 24.13L56.71 23.85L55.67 23.60L54.62 23.40L53.56 23.24L52.50 23.12L51.43 23.04L50.36 23.00L49.29 23.01L48.22 23.06L47.16 23.15L46.10 23.28L45.04 23.46L44.00 23.68L42.96 23.93L41.93 24.23L40.92 24.57L39.92 24.95L38.94 25.37L37.97 25.83L37.02 26.32L36.09 26.86L35.19 27.43L34.31 28.03L33.45 28.67L32.62 29.34L31.81 30.04L31.04 30.78L30.29 31.55L29.58 32.34L28.89 33.16L28.24 34.01L27.63 34.89L27.05 35.78L26.50 36.70L25.99 37.65L25.52 38.61L25.09 39.58L24.70 40.58L24.34 41.59L24.03 42.61L23.76 43.64L23.53 44.69L23.34 45.74L23.19 46.80L23.08 47.86L23.02 48.93L23.00 50.00L23.02 51.07L23.08 52.14L23.19 53.20L23.34 54.26L23.53 55.31L23.76 56.36L24.03 57.39L24.34 58.41L24.70 59.42L25.09 60.42L25.52 61.39L25.99 62.35L26.50 63.30L27.05 64.22L27.63 65.11L28.24 65.99L28.89 66.84L29.58 67.66L30.29 68.45L31.04 69.22L31.81 69.96L32.62 70.66L33.45 71.33L34.31 71.97L35.19 72.57L36.09 73.14L37.02 73.68L37.97 74.17L38.94 74.63L39.92 75.05L40.92 75.43L41.93 75.77L42.96 76.07L44.00 76.32L45.04 76.54L46.10 76.72L47.16 76.85L48.22 76.94L49.29 76.99L50.36 77.00L51.43 76.96L52.50 76.88L53.56 76.76L54.62 76.60L55.67 76.40L56.71 76.15L57.74 75.87L58.76 75.54L59.76 75.17L60.75 74.77L61.72 74.32L62.68 73.84L63.61 73.32L64.52 72.76L65.41 72.17L66.28 71.54L67.12 70.88L67.93 70.19L68.72 69.46L69.47 68.70L70.20 67.92L70.89 67.10L71.55 66.26L72.18 65.40L72.77 64.51L73.33 63.59L73.85 62.66L74.33 61.71L74.77 60.73L75.18 59.74L75.55 58.74L75.87 57.72L76.16 56.69L76.40 55.65L76.61 54.60Z"/><path id="f1" d="M90.00 50.00L89.94 50.85L89.86 51.70L89.77 52.54L89.65 53.38L89.52 54.22L89.37 55.05L89.21 55.88L89.02 56.70L88.82 57.52L88.60 58.33L88.37 59.14L88.12 59.94L87.85 60.73L87.56 61.52L87.26 62.30L86.94 63.07L86.61 63.83L86.26 64.59L85.90 65.34L85.52 66.08L85.12 66.81L84.71 67.52L84.29 68.23L83.85 68.93L83.39 69.62L82.92 70.30L82.44 70.97L81.95 71.63L81.44 72.27L80.92 72.90L80.39 73.52L79.84 74.13L79.28 74.73L78.71 75.31L78.13 75.88L77.54 76.44L76.93 76.98L76.32 77.51L75.69 78.03L75.06 78.53L74.41 79.02L73.76 79.49L73.10 79.95L72.42 80.39L71.74 80.82L71.06 81.23L70.36 81.63L69.66 82.01L68.95 82.38L68.23 82.73L67.51 83.06L66.78 83.38L66.04 83.69L65.30 83.97L64.56 84.24L63.81 84.50L63.05 84.74L62.29 84.96L61.53 85.16L60.77 85.35L60.00 85.52L59.23 85.68L58.46 85.82L57.69 85.94L56.91 86.05L56.13 86.13L55.36 86.21L54.58 86.26L53.80 86.30L53.03 86.32L52.25 86.33L51.48 86.32L50.70 86.29L49.93 86.25L49.16 86.19L48.40 86.11L47.63 86.02L46.87 85.91L46.12 85.78L45.36 85.64L44.61 85.48L43.87 85.31L43.13 85.12L42.40 84.92L41.67 84.70L40.95 84.47L40.23 84.22L39.52 83.95L38.82 83.68L38.12 83.38L37.43 83.08L36.75 82.75L36.08 82.42L35.41 82.07L34.76 81.71L34.11 81.33L33.47 80.94L32.84 80.54L32.22 80.12L31.61 79.70L31.01 79.26L30.43 78.80L29.85 78.34L29.28 77.86L28.72 77.38L28.18 76.88L27.65 76.37L27.12 75.85L26.61 75.32L26.12 74.78L25.63 74.23L25.16 73.68L24.70 73.11L24.25 72.53L23.82 71.95L23.40 71.35L22.99 70.75L22.59 70.14L22.21 69.53L21.85 68.91L21.49 68.28L21.16 67.64L20.83 67.00L20.52 66.35L20.23 65.69L19.94 65.04L19.68 64.37L19.42 63.70L19.19 63.03L18.96 62.35L18.76 61.67L18.56 60.99L18.38 60.30L18.22 59.62L18.07 58.92L17.94 58.23L17.82 57.54L17.72 56.84L17.63 56.14L17.56 55.45L17.50 54.75L17.46 54.05L17.43 53.35L17.41 52.66L17.42 51.96L17.43 51.26L17.46 50.57L17.51 49.88L17.57 49.19L17.64 48.50L17.73 47.82L17.84 47.14L17.96 46.46L18.09 45.79L18.24 45.12L18.40 44.45L18.57 43.79L18.76 43.14L18.96 42.49L19.18 41.84L19.41 41.20L19.65 40.57L19.91 39.94L20.17 39.32L20.45 38.71L20.75 38.10L21.05 37.51L21.37 36.91L21.70 36.33L22.04 35.76L22.40 35.19L22.76 34.63L23.14 34.08L23.53 33.54L23.93 33.01L24.33 32.49L24.75 31.98L25.18 31.47L25.62 30.98L26.07 30.50L26.53 30.03L27.00 29.57L27.47 29.12L27.96 28.68L28.45 28.25L28.95 27.84L29.46 27.43L29.98 27.04L30.51 26.66L31.04 26.29L31.58 25.93L32.12 25.59L32.68 25.25L33.23 24.93L33.80 24.62L34.37 24.33L34.94 24.05L35.52 23.78L36.10 23.52L36.69 23.28L37.29 23.05L37.88 22.83L38.48 22.62L39.09 22.43L39.69 22.25L40.30 22.09L40.91 21.94L41.52 21.80L42.14 21.67L42.75 21.56L43.37 21.46L43.99 21.38L44.61 21.31L45.23 21.25L45.85 21.21L46.47 21.17L47.09 21.16L47.70 21.15L48.32 21.16L48.93 21.18L49.55 21.22L50.16 21.26L50.77 21.32L51.38 21.40L51.98 21.48L52.58 21.58L53.18 21.69L53.77 21.82L54.36 21.96L54.95 22.10L55.53 22.27L56.11 22.44L56.68 22.62L57.25 22.82L57.81 23.03L58.36 23.25L58.91 23.48L59.46 23.73L60.00 23.98L60.53 24.25L61.05 24.52L61.57 24.81L62.08 25.11L62.58 25.41L63.08 25.73L63.57 26.06L64.05 26.40L64.52 26.74L64.98 27.10L65.44 27.46L65.88 27.84L66.32 28.22L66.75 28.61L67.17 29.01L67.58 29.42L67.98 29.84L68.37 30.26L68.75 30.69L69.12 31.13L69.47 31.58L69.82 32.03L70.16 32.49L70.49 32.95L70.81 33.42L71.12 33.90L71.41 34.38L71.70 34.87L71.97 35.36L72.24 35.86L72.49 36.36L72.73 36.87L72.96 37.38L73.18 37.89L73.38 38.41L73.58 38.93L73.76 39.46L73.93 39.98L74.09 40.51L74.24 41.04L74.38 41.58L74.51 42.11L74.62 42.65L74.72 43.19L74.81 43.73L74.89 44.27L74.96 44.81L75.01 45.35L75.05 45.89L75.08 46.43L75.10 46.97L75.11 47.51L75.11 48.05L75.09 48.58L75.07 49.12L75.03 49.65L74.98 50.18L74.92 50.71L74.85 51.24L74.77 51.77L74.67 52.29L74.57 52.80L74.45 53.32L74.33 53.83L74.19 54.34L74.04 54.84L73.89 55.34L73.72 55.83L73.54 56.32L73.35 56.81L73.15 57.29L72.94 57.76L72.73 58.23L72.50 58.69L72.26 59.15L72.02 59.60L71.76 60.04L71.50 60.48L71.22 60.91L70.94 61.34L70.65 61.76L70.36 62.17L70.05 62.57L69.74 62.96L69.41 63.35L69.08 63.73L68.75 64.10L68.40 64.47L68.05 64.82L67.70 65.17L67.33 65.51L66.96 65.84L66.58 66.16L66.20 66.47L65.81 66.78L65.42 67.07L65.02 67.36L64.61 67.63L64.21 67.90L63.79 68.16L63.37 68.41L58.67 61.93L58.95 61.79L59.23 61.63L59.51 61.47L59.78 61.31L60.06 61.13L60.33 60.96L60.59 60.77L60.85 60.58L61.11 60.38L61.37 60.17L61.62 59.96L61.87 59.75L62.11 59.52L62.35 59.29L62.59 59.06L62.82 58.82L63.05 58.57L63.27 58.32L63.49 58.06L63.70 57.80L63.91 57.53L64.11 57.26L64.31 56.98L64.50 56.69L64.68 56.40L64.86 56.11L65.04 55.81L65.20 55.51L65.37 55.20L65.52 54.89L65.67 54.57L65.81 54.25L65.95 53.92L66.08 53.59L66.20 53.26L66.32 52.93L66.42 52.59L66.53 52.24L66.62 51.90L66.71 51.55L66.79 51.20L66.86 50.84L66.92 50.48L66.98 50.13L67.03 49.76L67.07 49.40L67.11 49.03L67.13 48.67L67.15 48.30L67.16 47.93L67.16 47.56L67.16 47.18L67.14 46.81L67.12 46.44L67.09 46.06L67.05 45.69L67.01 45.31L66.95 44.94L66.89 44.56L66.82 44.19L66.74 43.82L66.65 43.44L66.55 43.07L66.45 42.70L66.34 42.33L66.22 41.96L66.09 41.60L65.95 41.23L65.80 40.87L65.65 40.51L65.49 40.15L65.32 39.80L65.14 39.44L64.95 39.10L64.76 38.75L64.55 38.41L64.34 38.07L64.12 37.73L63.90 37.40L63.66 37.07L63.42 36.75L63.17 36.43L62.92 36.12L62.65 35.81L62.38 35.50L62.10 35.21L61.82 34.91L61.52 34.62L61.22 34.34L60.92 34.06L60.60 33.79L60.28 33.53L59.96 33.27L59.62 33.02L59.28 32.77L58.94 32.53L58.59 32.30L58.23 32.08L57.87 31.86L57.50 31.65L57.13 31.45L56.75 31.25L56.37 31.07L55.98 30.89L55.58 30.71L55.19 30.55L54.78 30.40L54.38 30.25L53.97 30.11L53.55 29.98L53.13 29.86L52.71 29.75L52.29 29.64L51.86 29.55L51.43 29.46L50.99 29.39L50.55 29.32L50.11 29.26L49.67 29.22L49.23 29.18L48.78 29.15L48.34 29.13L47.89 29.12L47.44 29.12L46.99 29.12L46.54 29.14L46.09 29.17L45.63 29.21L45.18 29.26L44.73 29.32L44.28 29.38L43.83 29.46L43.38 29.55L42.93 29.65L42.48 29.75L42.03 29.87L41.58 30.00L41.14 30.13L40.70 30.28L40.26 30.44L39.82 30.60L39.39 30.78L38.96 30.97L38.53 31.16L38.10 31.37L37.68 31.58L37.26 31.81L36.85 32.04L36.44 32.28L36.04 32.54L35.64 32.80L35.24 33.07L34.85 33.35L34.46 33.64L34.08 33.94L33.71 34.24L33.34 34.56L32.98 34.88L32.62 35.21L32.27 35.55L31.93 35.90L31.59 36.26L31.26 36.62L30.94 37.00L30.63 37.38L30.32 37.77L30.02 38.16L29.73 38.56L29.45 38.97L29.17 39.39L28.91 39.81L28.65 40.24L28.40 40.68L28.16 41.12L27.93 41.57L27.71 42.02L27.49 42.48L27.29 42.94L27.10 43.41L26.91 43.89L26.74 44.37L26.57 44.85L26.42 45.34L26.28 45.84L26.14 46.33L26.02 46.84L25.91 47.34L25.81 47.85L25.72 48.36L25.64 48.87L25.57 49.39L25.51 49.91L25.46 50.43L25.43 50.95L25.40 51.48L25.39 52.01L25.39 52.53L25.39 53.06L25.41 53.59L25.45 54.12L25.49 54.65L25.54 55.18L25.61 55.71L25.69 56.24L25.78 56.77L25.88 57.30L25.99 57.83L26.11 58.35L26.25 58.87L26.40 59.40L26.56 59.91L26.72 60.43L26.91 60.95L27.10 61.46L27.30 61.96L27.52 62.47L27.74 62.97L27.98 63.47L28.23 63.96L28.49 64.45L28.76 64.93L29.04 65.41L29.33 65.88L29.63 66.35L29.95 66.81L30.27 67.26L30.60 67.71L30.95 68.16L31.30 68.59L31.67 69.02L32.04 69.45L32.42 69.86L32.82 70.27L33.22 70.67L33.63 71.06L34.05 71.44L34.48 71.82L34.92 72.19L35.37 72.54L35.83 72.89L36.29 73.23L36.76 73.56L37.24 73.88L37.73 74.20L38.22 74.50L38.73 74.79L39.23 75.07L39.75 75.34L40.27 75.60L40.80 75.85L41.34 76.08L41.88 76.31L42.43 76.53L42.98 76.73L43.54 76.92L44.10 77.10L44.67 77.27L45.24 77.43L45.82 77.57L46.40 77.71L46.98 77.83L47.57 77.94L48.16 78.03L48.75 78.12L49.35 78.19L49.95 78.25L50.55 78.29L51.15 78.32L51.76 78.34L52.36 78.35L52.97 78.34L53.58 78.32L54.19 78.29L54.80 78.25L55.40 78.19L56.01 78.12L56.62 78.03L57.23 77.93L57.83 77.82L58.44 77.70L59.04 77.56L59.64 77.41L60.24 77.25L60.83 77.07L61.43 76.88L62.02 76.68L62.60 76.46L63.18 76.24L63.76 75.99L64.34 75.74L64.91 75.47L65.47 75.19L66.03 74.90L66.58 74.60L67.13 74.28L67.67 73.95L68.21 73.61L68.74 73.26L69.26 72.89L69.78 72.52L70.29 72.13L70.79 71.73L71.28 71.32L71.77 70.90L72.24 70.46L72.71 70.02L73.17 69.57L73.62 69.10L74.06 68.63L74.49 68.14L74.91 67.65L75.32 67.14L75.72 66.63L76.12 66.10L76.50 65.57L76.86 65.03L77.22 64.48L77.57 63.92L77.90 63.35L78.23 62.78L78.54 62.19L78.84 61.60L79.13 61.01L79.40 60.40L79.67 59.79L79.91 59.17L80.15 58.55L80.38 57.92L80.59 57.28L80.78 56.64L80.97 56.00L81.14 55.35L81.30 54.69L81.44 54.03L81.57 53.37L81.68 52.70L81.78 52.03L81.87 51.36L81.94 50.68L82.00 50.00Z"/><path id="f2" d="M90.00 50.00L89.93 50.96L89.84 51.92L89.72 52.87L89.59 53.82L89.43 54.76L89.24 55.70L89.04 56.63L88.81 57.55L88.56 58.47L88.29 59.38L88.00 60.28L87.69 61.18L87.36 62.06L87.00 62.94L86.63 63.80L86.23 64.66L85.82 65.50L85.38 66.33L84.93 67.15L84.45 67.96L83.96 68.75L83.45 69.53L82.92 70.30L82.38 71.06L81.82 71.80L81.24 72.52L80.64 73.23L80.03 73.92L79.40 74.60L78.76 75.26L78.10 75.91L77.43 76.53L76.75 77.14L76.05 77.74L75.33 78.31L74.61 78.87L73.87 79.41L73.13 79.93L72.37 80.43L71.60 80.91L70.82 81.37L70.02 81.81L69.23 82.24L68.42 82.64L67.60 83.02L66.78 83.38L65.95 83.72L65.11 84.05L64.26 84.35L63.41 84.62L62.56 84.88L61.70 85.12L60.84 85.34L59.97 85.53L59.10 85.70L58.22 85.86L57.35 85.99L56.47 86.10L55.59 86.19L54.72 86.25L53.84 86.30L52.96 86.32L52.08 86.33L51.21 86.31L50.34 86.27L49.46 86.21L48.60 86.13L47.73 86.03L46.87 85.91L46.02 85.76L45.17 85.60L44.32 85.42L43.48 85.22L42.65 84.99L41.83 84.75L41.01 84.49L40.20 84.21L39.40 83.91L38.60 83.59L37.82 83.25L37.05 82.90L36.28 82.52L35.53 82.13L34.79 81.72L34.05 81.30L33.33 80.85L32.63 80.40L31.93 79.92L31.25 79.43L30.58 78.92L29.92 78.40L29.28 77.86L28.65 77.31L28.04 76.75L27.44 76.17L26.86 75.58L26.29 74.97L25.74 74.35L25.20 73.73L24.68 73.08L24.17 72.43L23.69 71.77L23.22 71.09L22.76 70.41L22.33 69.72L21.91 69.01L21.51 68.30L21.13 67.58L20.76 66.86L20.42 66.12L20.09 65.38L19.78 64.63L19.49 63.88L19.22 63.12L18.96 62.35L18.73 61.59L18.52 60.81L18.32 60.04L18.14 59.26L17.98 58.47L17.85 57.69L17.73 56.90L17.63 56.11L17.55 55.32L17.48 54.54L17.44 53.75L17.42 52.96L17.41 52.17L17.43 51.39L17.46 50.60L17.51 49.82L17.58 49.04L17.67 48.27L17.78 47.49L17.91 46.73L18.05 45.96L18.22 45.21L18.40 44.45L18.60 43.71L18.81 42.97L19.05 42.23L19.30 41.51L19.56 40.79L19.85 40.08L20.15 39.38L20.47 38.68L20.80 38.00L21.15 37.33L21.51 36.66L21.89 36.01L22.29 35.36L22.70 34.73L23.12 34.11L23.56 33.49L24.01 32.90L24.48 32.31L24.96 31.73L25.45 31.17L25.95 30.63L26.47 30.09L27.00 29.57L27.54 29.06L28.09 28.57L28.65 28.09L29.22 27.62L29.80 27.17L30.39 26.74L30.99 26.32L31.60 25.92L32.22 25.53L32.85 25.15L33.48 24.80L34.12 24.46L34.77 24.13L35.42 23.82L36.08 23.53L36.74 23.26L37.42 23.00L38.09 22.76L38.77 22.53L39.45 22.32L40.14 22.13L40.83 21.96L41.52 21.80L42.22 21.66L42.92 21.54L43.61 21.43L44.31 21.34L45.01 21.27L45.71 21.21L46.41 21.18L47.11 21.16L47.81 21.15L48.51 21.17L49.20 21.19L49.89 21.24L50.58 21.30L51.27 21.38L51.95 21.48L52.63 21.59L53.31 21.72L53.98 21.87L54.64 22.03L55.30 22.20L55.96 22.39L56.61 22.60L57.25 22.82L57.88 23.06L58.51 23.31L59.13 23.58L59.74 23.86L60.34 24.15L60.94 24.46L61.53 24.78L62.10 25.12L62.67 25.47L63.23 25.83L63.78 26.20L64.32 26.59L64.84 26.99L65.36 27.40L65.86 27.82L66.36 28.26L66.84 28.70L67.31 29.15L67.77 29.62L68.21 30.09L68.65 30.58L69.07 31.07L69.47 31.58L69.87 32.09L70.25 32.61L70.62 33.14L70.97 33.67L71.31 34.21L71.64 34.76L71.95 35.32L72.25 35.88L72.53 36.45L72.80 37.02L73.06 37.60L73.30 38.18L73.52 38.77L73.73 39.36L73.93 39.96L74.11 40.56L74.27 41.16L74.43 41.76L74.56 42.37L74.68 42.98L74.79 43.59L74.88 44.20L74.96 44.81L75.02 45.42L75.06 46.03L75.09 46.64L75.11 47.25L75.11 47.86L75.10 48.47L75.07 49.07L75.03 49.68L74.97 50.28L74.90 50.87L74.82 51.47L74.72 52.06L74.60 52.65L74.47 53.23L74.33 53.81L74.18 54.38L74.01 54.95L73.83 55.51L73.63 56.07L73.43 56.62L73.21 57.16L72.97 57.70L72.73 58.23L72.47 58.75L72.20 59.27L71.92 59.77L71.62 60.27L71.32 60.76L71.01 61.25L70.68 61.72L70.34 62.18L70.00 62.64L69.64 63.08L69.27 63.52L68.90 63.94L68.51 64.36L68.11 64.76L67.71 65.16L67.30 65.54L66.88 65.91L66.45 66.27L66.02 66.62L65.57 66.96L65.12 67.28L64.67 67.60L64.21 67.90L63.74 68.19L63.26 68.47L62.78 68.73L62.30 68.99L61.81 69.23L61.31 69.46L60.82 69.67L60.31 69.88L59.81 70.07L59.30 70.24L58.79 70.41L58.27 70.56L57.76 70.70L57.24 70.83L56.72 70.94L56.20 71.04L55.68 71.13L55.15 71.20L54.63 71.26L54.11 71.31L53.58 71.35L53.06 71.37L52.54 71.38L52.02 71.38L51.50 71.36L50.99 71.34L50.47 71.30L49.96 71.25L49.45 71.18L48.95 71.10L48.44 71.02L47.94 70.92L47.45 70.80L46.96 70.68L46.47 70.54L45.99 70.40L45.52 70.24L45.04 70.07L44.58 69.89L44.12 69.70L43.67 69.50L46.14 61.89L46.41 62.03L46.68 62.17L46.96 62.30L47.25 62.43L47.53 62.55L47.83 62.66L48.12 62.76L48.42 62.86L48.73 62.95L49.03 63.04L49.35 63.11L49.66 63.18L49.98 63.25L50.29 63.30L50.62 63.35L50.94 63.38L51.27 63.42L51.60 63.44L51.93 63.45L52.26 63.46L52.59 63.46L52.93 63.45L53.26 63.43L53.60 63.40L53.94 63.37L54.27 63.32L54.61 63.27L54.95 63.21L55.29 63.14L55.62 63.06L55.96 62.97L56.29 62.88L56.63 62.78L56.96 62.66L57.29 62.54L57.62 62.41L57.95 62.27L58.27 62.13L58.60 61.97L58.92 61.81L59.23 61.63L59.55 61.45L59.86 61.26L60.16 61.07L60.46 60.86L60.76 60.64L61.06 60.42L61.35 60.19L61.63 59.95L61.91 59.71L62.19 59.45L62.46 59.19L62.72 58.92L62.98 58.65L63.23 58.36L63.48 58.07L63.72 57.77L63.95 57.47L64.18 57.16L64.40 56.84L64.61 56.52L64.82 56.19L65.01 55.85L65.20 55.51L65.39 55.16L65.56 54.80L65.73 54.44L65.88 54.08L66.03 53.71L66.17 53.33L66.31 52.95L66.43 52.57L66.54 52.18L66.65 51.79L66.74 51.40L66.83 51.00L66.91 50.59L66.97 50.19L67.03 49.78L67.08 49.37L67.11 48.96L67.14 48.54L67.16 48.12L67.16 47.70L67.16 47.28L67.15 46.86L67.12 46.44L67.09 46.01L67.04 45.59L66.99 45.17L66.92 44.74L66.84 44.32L66.76 43.90L66.66 43.48L66.55 43.05L66.43 42.64L66.30 42.22L66.16 41.80L66.01 41.39L65.85 40.98L65.68 40.57L65.49 40.17L65.30 39.77L65.10 39.37L64.88 38.98L64.66 38.59L64.43 38.20L64.18 37.82L63.93 37.44L63.66 37.07L63.39 36.71L63.11 36.35L62.81 36.00L62.51 35.65L62.20 35.31L61.88 34.98L61.55 34.65L61.21 34.33L60.86 34.02L60.51 33.71L60.14 33.42L59.77 33.13L59.39 32.85L59.00 32.58L58.60 32.31L58.20 32.06L57.79 31.81L57.37 31.58L56.95 31.35L56.52 31.14L56.08 30.93L55.64 30.74L55.19 30.55L54.73 30.38L54.27 30.21L53.80 30.06L53.33 29.92L52.86 29.79L52.38 29.67L51.89 29.56L51.41 29.46L50.92 29.38L50.42 29.30L49.92 29.24L49.42 29.19L48.92 29.15L48.42 29.13L47.91 29.12L47.40 29.12L46.89 29.13L46.38 29.15L45.87 29.19L45.36 29.24L44.85 29.30L44.34 29.37L43.83 29.46L43.32 29.56L42.81 29.67L42.30 29.80L41.80 29.94L41.29 30.09L40.79 30.25L40.30 30.42L39.80 30.61L39.31 30.81L38.83 31.03L38.34 31.25L37.86 31.49L37.39 31.74L36.92 32.00L36.46 32.27L36.00 32.56L35.55 32.86L35.10 33.17L34.66 33.49L34.23 33.82L33.81 34.16L33.39 34.52L32.98 34.88L32.58 35.26L32.18 35.64L31.80 36.04L31.42 36.45L31.05 36.87L30.70 37.29L30.35 37.73L30.01 38.18L29.68 38.63L29.36 39.10L29.06 39.57L28.76 40.05L28.47 40.54L28.20 41.04L27.94 41.55L27.69 42.06L27.45 42.58L27.22 43.11L27.01 43.64L26.81 44.18L26.62 44.73L26.44 45.28L26.28 45.84L26.13 46.40L25.99 46.97L25.87 47.54L25.76 48.11L25.66 48.69L25.58 49.28L25.51 49.86L25.46 50.45L25.42 51.05L25.40 51.64L25.39 52.24L25.39 52.83L25.41 53.43L25.44 54.03L25.49 54.63L25.55 55.23L25.63 55.83L25.72 56.43L25.82 57.02L25.95 57.62L26.08 58.21L26.23 58.81L26.40 59.40L26.58 59.98L26.77 60.57L26.98 61.15L27.20 61.72L27.44 62.29L27.69 62.86L27.96 63.42L28.24 63.98L28.53 64.53L28.84 65.07L29.17 65.61L29.50 66.14L29.85 66.67L30.21 67.19L30.59 67.69L30.98 68.20L31.38 68.69L31.80 69.17L32.22 69.65L32.66 70.11L33.11 70.56L33.58 71.01L34.05 71.44L34.54 71.87L35.04 72.28L35.55 72.68L36.07 73.07L36.60 73.45L37.14 73.82L37.69 74.17L38.24 74.51L38.81 74.84L39.39 75.15L39.98 75.45L40.57 75.74L41.17 76.01L41.78 76.27L42.40 76.52L43.03 76.75L43.66 76.96L44.30 77.16L44.94 77.35L45.59 77.52L46.24 77.67L46.90 77.81L47.57 77.94L48.24 78.04L48.91 78.14L49.58 78.21L50.26 78.27L50.94 78.31L51.63 78.34L52.31 78.35L53.00 78.34L53.68 78.32L54.37 78.28L55.06 78.22L55.75 78.15L56.44 78.06L57.12 77.95L57.81 77.83L58.49 77.69L59.17 77.53L59.85 77.36L60.52 77.17L61.20 76.96L61.86 76.73L62.53 76.49L63.18 76.24L63.84 75.96L64.49 75.67L65.13 75.37L65.76 75.04L66.39 74.70L67.01 74.35L67.63 73.98L68.23 73.60L68.83 73.20L69.42 72.78L70.00 72.35L70.57 71.91L71.13 71.45L71.68 70.97L72.22 70.48L72.75 69.98L73.27 69.47L73.77 68.94L74.27 68.40L74.75 67.84L75.22 67.27L75.67 66.69L76.12 66.10L76.54 65.50L76.96 64.89L77.36 64.26L77.75 63.62L78.12 62.98L78.47 62.32L78.81 61.66L79.14 60.98L79.45 60.30L79.74 59.60L80.02 58.90L80.28 58.19L80.52 57.48L80.75 56.75L80.96 56.02L81.15 55.29L81.33 54.55L81.48 53.80L81.62 53.05L81.75 52.29L81.85 51.53L81.93 50.77L82.00 50.00Z"/><path id="f3" d="M90.00 50.00L89.92 51.07L89.81 52.14L89.68 53.20L89.52 54.25L89.32 55.30L89.11 56.34L88.86 57.38L88.58 58.40L88.28 59.42L87.96 60.42L87.60 61.42L87.22 62.40L86.82 63.37L86.38 64.33L85.93 65.27L85.45 66.20L84.94 67.12L84.42 68.02L83.87 68.90L83.29 69.77L82.70 70.62L82.08 71.46L81.44 72.27L80.78 73.07L80.10 73.84L79.40 74.60L78.69 75.34L77.95 76.05L77.20 76.75L76.43 77.42L75.64 78.07L74.83 78.70L74.02 79.31L73.18 79.89L72.34 80.45L71.48 80.98L70.60 81.49L69.72 81.98L68.82 82.44L67.92 82.88L67.00 83.29L66.07 83.67L65.14 84.03L64.20 84.37L63.25 84.68L62.29 84.96L61.33 85.21L60.37 85.44L59.40 85.65L58.43 85.82L57.45 85.97L56.47 86.10L55.49 86.20L54.51 86.27L53.53 86.31L52.56 86.33L51.58 86.32L50.60 86.28L49.63 86.22L48.66 86.14L47.70 86.02L46.74 85.89L45.79 85.72L44.84 85.53L43.90 85.32L42.97 85.08L42.05 84.82L41.13 84.53L40.23 84.22L39.34 83.88L38.45 83.53L37.58 83.14L36.72 82.74L35.87 82.31L35.04 81.87L34.22 81.40L33.42 80.91L32.63 80.40L31.85 79.86L31.09 79.31L30.35 78.74L29.62 78.15L28.92 77.55L28.23 76.92L27.55 76.28L26.90 75.62L26.27 74.95L25.65 74.26L25.06 73.55L24.48 72.83L23.93 72.10L23.40 71.35L22.88 70.60L22.39 69.82L21.93 69.04L21.48 68.25L21.06 67.44L20.65 66.63L20.28 65.81L19.92 64.98L19.59 64.14L19.28 63.29L18.99 62.44L18.73 61.59L18.49 60.72L18.28 59.86L18.09 58.98L17.92 58.11L17.77 57.23L17.66 56.36L17.56 55.48L17.49 54.60L17.44 53.72L17.42 52.84L17.42 51.96L17.44 51.08L17.49 50.21L17.56 49.34L17.65 48.47L17.76 47.61L17.90 46.76L18.07 45.91L18.25 45.06L18.46 44.22L18.69 43.39L18.94 42.57L19.21 41.76L19.50 40.96L19.82 40.16L20.15 39.38L20.50 38.60L20.88 37.84L21.27 37.09L21.69 36.36L22.12 35.63L22.57 34.92L23.04 34.22L23.53 33.54L24.03 32.87L24.55 32.22L25.09 31.58L25.64 30.96L26.21 30.36L26.79 29.77L27.39 29.20L28.00 28.64L28.63 28.11L29.26 27.59L29.91 27.09L30.58 26.61L31.25 26.15L31.93 25.70L32.63 25.28L33.33 24.88L34.04 24.50L34.77 24.13L35.50 23.79L36.23 23.47L36.98 23.16L37.73 22.88L38.48 22.62L39.24 22.38L40.01 22.17L40.78 21.97L41.55 21.79L42.33 21.64L43.10 21.51L43.88 21.39L44.66 21.30L45.44 21.23L46.22 21.19L47.00 21.16L47.78 21.15L48.56 21.17L49.33 21.20L50.11 21.26L50.87 21.34L51.64 21.43L52.40 21.55L53.15 21.69L53.90 21.85L54.64 22.03L55.38 22.22L56.11 22.44L56.83 22.67L57.54 22.93L58.24 23.20L58.94 23.49L59.62 23.80L60.30 24.13L60.96 24.47L61.62 24.83L62.26 25.21L62.89 25.61L63.51 26.02L64.11 26.44L64.70 26.88L65.28 27.34L65.84 27.81L66.40 28.29L66.93 28.79L67.45 29.30L67.96 29.82L68.45 30.35L68.92 30.90L69.38 31.46L69.82 32.03L70.25 32.61L70.66 33.20L71.05 33.80L71.43 34.40L71.78 35.02L72.12 35.64L72.45 36.27L72.75 36.91L73.04 37.56L73.30 38.21L73.55 38.86L73.79 39.52L74.00 40.19L74.19 40.86L74.37 41.53L74.53 42.21L74.66 42.88L74.78 43.56L74.89 44.24L74.97 44.93L75.03 45.61L75.08 46.29L75.10 46.97L75.11 47.65L75.10 48.33L75.08 49.00L75.03 49.68L74.96 50.35L74.88 51.01L74.78 51.67L74.67 52.33L74.53 52.98L74.38 53.63L74.21 54.27L74.02 54.91L73.82 55.53L73.60 56.15L73.37 56.77L73.12 57.37L72.85 57.97L72.57 58.55L72.27 59.13L71.96 59.70L71.64 60.25L71.30 60.80L70.94 61.34L70.58 61.86L70.20 62.38L69.80 62.88L69.40 63.37L68.98 63.85L68.55 64.31L68.11 64.76L67.66 65.20L67.20 65.62L66.73 66.04L66.25 66.43L65.76 66.82L65.26 67.18L64.76 67.54L64.24 67.88L63.72 68.20L63.19 68.51L62.65 68.80L62.11 69.08L61.56 69.34L61.01 69.59L60.45 69.82L59.89 70.04L59.32 70.24L58.75 70.42L58.17 70.59L57.60 70.74L57.02 70.88L56.44 71.00L55.86 71.10L55.27 71.19L54.69 71.26L54.11 71.31L53.52 71.35L52.94 71.38L52.36 71.38L51.78 71.37L51.20 71.35L50.63 71.31L50.06 71.26L49.49 71.19L48.93 71.10L48.37 71.00L47.81 70.89L47.26 70.76L46.72 70.61L46.18 70.45L45.64 70.28L45.12 70.10L44.60 69.90L44.08 69.68L43.58 69.46L43.08 69.22L42.59 68.97L42.11 68.70L41.64 68.43L41.18 68.14L40.72 67.84L40.28 67.53L39.85 67.20L39.42 66.87L39.01 66.53L38.61 66.18L38.22 65.81L37.84 65.44L37.47 65.06L37.11 64.67L36.77 64.28L36.43 63.87L36.11 63.46L35.80 63.04L35.51 62.61L35.23 62.18L34.96 61.74L34.70 61.29L34.45 60.84L34.22 60.39L34.00 59.93L33.80 59.46L33.61 58.99L33.43 58.52L33.26 58.05L33.11 57.57L32.97 57.09L32.85 56.61L32.74 56.12L32.64 55.64L40.25 53.17L40.28 53.45L40.32 53.73L40.36 54.01L40.41 54.30L40.47 54.58L40.54 54.86L40.62 55.15L40.71 55.43L40.80 55.71L40.90 55.99L41.02 56.27L41.13 56.54L41.26 56.82L41.40 57.09L41.54 57.36L41.70 57.63L41.86 57.89L42.03 58.15L42.21 58.41L42.39 58.66L42.59 58.91L42.79 59.16L43.00 59.40L43.21 59.64L43.44 59.87L43.67 60.09L43.91 60.31L44.16 60.53L44.41 60.74L44.68 60.94L44.95 61.14L45.22 61.33L45.50 61.51L45.79 61.69L46.09 61.86L46.39 62.02L46.69 62.18L47.01 62.32L47.32 62.46L47.65 62.59L47.97 62.71L48.31 62.83L48.65 62.93L48.99 63.03L49.33 63.11L49.68 63.19L50.04 63.26L50.39 63.31L50.75 63.36L51.12 63.40L51.48 63.43L51.85 63.45L52.22 63.46L52.59 63.46L52.97 63.45L53.34 63.42L53.72 63.39L54.09 63.35L54.47 63.29L54.85 63.23L55.22 63.15L55.60 63.07L55.97 62.97L56.35 62.86L56.72 62.75L57.09 62.62L57.46 62.48L57.82 62.33L58.19 62.17L58.55 61.99L58.90 61.81L59.26 61.62L59.61 61.42L59.95 61.20L60.29 60.98L60.63 60.74L60.96 60.50L61.28 60.25L61.60 59.98L61.91 59.71L62.22 59.42L62.52 59.13L62.81 58.83L63.10 58.52L63.38 58.20L63.65 57.87L63.91 57.53L64.16 57.18L64.41 56.83L64.64 56.47L64.87 56.10L65.09 55.72L65.30 55.33L65.49 54.94L65.68 54.54L65.86 54.13L66.03 53.72L66.19 53.31L66.33 52.88L66.47 52.45L66.59 52.02L66.70 51.58L66.80 51.13L66.89 50.69L66.97 50.24L67.03 49.78L67.08 49.32L67.12 48.86L67.15 48.40L67.16 47.93L67.16 47.46L67.15 46.99L67.13 46.52L67.09 46.05L67.04 45.57L66.98 45.10L66.90 44.63L66.81 44.16L66.71 43.69L66.59 43.22L66.46 42.75L66.32 42.28L66.17 41.82L66.00 41.36L65.82 40.90L65.62 40.45L65.41 40.00L65.19 39.55L64.96 39.11L64.71 38.67L64.45 38.24L64.18 37.82L63.90 37.40L63.60 36.99L63.29 36.58L62.97 36.19L62.64 35.80L62.30 35.41L61.94 35.04L61.57 34.67L61.20 34.32L60.81 33.97L60.41 33.63L60.00 33.30L59.58 32.99L59.15 32.68L58.71 32.38L58.26 32.10L57.81 31.82L57.34 31.56L56.87 31.31L56.38 31.07L55.89 30.85L55.39 30.64L54.89 30.44L54.38 30.25L53.86 30.08L53.33 29.92L52.80 29.77L52.27 29.64L51.73 29.52L51.18 29.42L50.63 29.33L50.08 29.26L49.52 29.20L48.96 29.16L48.40 29.13L47.83 29.12L47.26 29.12L46.70 29.14L46.13 29.17L45.56 29.22L44.99 29.28L44.42 29.36L43.85 29.46L43.28 29.57L42.71 29.70L42.15 29.84L41.58 30.00L41.03 30.17L40.47 30.36L39.92 30.57L39.37 30.79L38.83 31.03L38.29 31.28L37.75 31.54L37.23 31.83L36.71 32.12L36.19 32.44L35.69 32.76L35.19 33.11L34.70 33.46L34.22 33.83L33.74 34.22L33.28 34.61L32.82 35.02L32.38 35.45L31.94 35.89L31.52 36.34L31.11 36.80L30.71 37.28L30.32 37.77L29.95 38.26L29.58 38.78L29.23 39.30L28.89 39.83L28.57 40.37L28.26 40.93L27.97 41.49L27.69 42.06L27.42 42.64L27.17 43.23L26.94 43.83L26.72 44.43L26.51 45.05L26.33 45.67L26.16 46.29L26.00 46.92L25.86 47.56L25.74 48.20L25.64 48.85L25.55 49.50L25.49 50.16L25.43 50.82L25.40 51.48L25.39 52.14L25.39 52.81L25.41 53.48L25.45 54.14L25.51 54.81L25.58 55.48L25.67 56.15L25.79 56.82L25.92 57.48L26.06 58.15L26.23 58.81L26.42 59.46L26.62 60.12L26.84 60.77L27.08 61.41L27.34 62.05L27.61 62.69L27.91 63.31L28.22 63.94L28.55 64.55L28.89 65.16L29.25 65.76L29.63 66.35L30.03 66.93L30.44 67.50L30.87 68.06L31.32 68.61L31.78 69.15L32.26 69.68L32.75 70.20L33.26 70.70L33.78 71.19L34.31 71.67L34.86 72.14L35.43 72.59L36.01 73.03L36.60 73.45L37.20 73.86L37.81 74.25L38.44 74.62L39.08 74.98L39.73 75.33L40.39 75.65L41.06 75.96L41.74 76.25L42.43 76.53L43.12 76.78L43.83 77.02L44.54 77.24L45.26 77.44L45.99 77.62L46.73 77.78L47.46 77.92L48.21 78.04L48.96 78.14L49.71 78.22L50.47 78.29L51.23 78.33L51.99 78.35L52.76 78.35L53.53 78.33L54.29 78.29L55.06 78.22L55.83 78.14L56.59 78.04L57.36 77.91L58.12 77.77L58.88 77.60L59.64 77.41L60.39 77.20L61.14 76.97L61.89 76.72L62.63 76.45L63.36 76.16L64.09 75.85L64.81 75.52L65.52 75.17L66.22 74.80L66.92 74.41L67.60 74.00L68.28 73.57L68.95 73.12L69.60 72.65L70.24 72.16L70.87 71.66L71.49 71.14L72.10 70.60L72.69 70.04L73.27 69.47L73.83 68.88L74.38 68.27L74.91 67.65L75.43 67.01L75.93 66.35L76.41 65.69L76.88 65.00L77.33 64.31L77.76 63.60L78.17 62.88L78.57 62.14L78.94 61.40L79.30 60.64L79.63 59.87L79.95 59.09L80.24 58.30L80.51 57.51L80.77 56.70L81.00 55.88L81.21 55.06L81.40 54.23L81.56 53.40L81.71 52.55L81.83 51.71L81.92 50.86L82.00 50.00Z"/><path id="f4" d="M90.00 50.00L89.91 51.18L89.79 52.36L89.63 53.52L89.44 54.69L89.21 55.84L88.96 56.98L88.66 58.12L88.34 59.24L87.98 60.35L87.59 61.45L87.17 62.53L86.71 63.60L86.23 64.66L85.72 65.69L85.17 66.71L84.60 67.71L84.00 68.69L83.37 69.65L82.72 70.59L82.04 71.51L81.33 72.41L80.60 73.28L79.84 74.13L79.06 74.96L78.26 75.76L77.43 76.53L76.59 77.28L75.72 78.00L74.83 78.70L73.93 79.37L73.01 80.01L72.07 80.62L71.12 81.20L70.15 81.75L69.16 82.27L68.17 82.76L67.16 83.22L66.14 83.65L65.11 84.05L64.07 84.41L63.02 84.75L61.96 85.05L60.90 85.32L59.83 85.56L58.76 85.77L57.69 85.94L56.61 86.08L55.53 86.19L54.45 86.27L53.37 86.32L52.29 86.33L51.21 86.31L50.13 86.26L49.06 86.18L48.00 86.06L46.94 85.92L45.89 85.74L44.84 85.53L43.81 85.30L42.78 85.03L41.76 84.73L40.76 84.40L39.77 84.05L38.79 83.66L37.82 83.25L36.87 82.81L35.93 82.34L35.01 81.85L34.11 81.33L33.22 80.78L32.36 80.21L31.51 79.62L30.68 79.00L29.87 78.36L29.09 77.70L28.32 77.01L27.58 76.30L26.86 75.58L26.16 74.83L25.49 74.07L24.84 73.28L24.21 72.48L23.61 71.67L23.04 70.83L22.49 69.98L21.97 69.12L21.48 68.25L21.01 67.36L20.57 66.46L20.16 65.55L19.78 64.63L19.42 63.70L19.10 62.77L18.80 61.82L18.53 60.87L18.29 59.92L18.08 58.95L17.90 57.99L17.74 57.02L17.62 56.05L17.52 55.08L17.46 54.11L17.42 53.14L17.41 52.17L17.43 51.20L17.48 50.24L17.56 49.28L17.67 48.33L17.80 47.38L17.96 46.43L18.15 45.50L18.37 44.57L18.61 43.65L18.88 42.74L19.18 41.84L19.50 40.96L19.85 40.08L20.22 39.22L20.62 38.37L21.04 37.53L21.49 36.71L21.95 35.91L22.45 35.12L22.96 34.34L23.49 33.59L24.05 32.85L24.62 32.13L25.22 31.43L25.84 30.75L26.47 30.09L27.12 29.45L27.79 28.83L28.47 28.23L29.18 27.66L29.89 27.11L30.62 26.58L31.37 26.07L32.12 25.59L32.89 25.13L33.67 24.69L34.47 24.28L35.27 23.89L36.08 23.53L36.90 23.19L37.73 22.88L38.56 22.60L39.40 22.34L40.25 22.10L41.10 21.89L41.95 21.71L42.81 21.55L43.67 21.42L44.53 21.32L45.39 21.24L46.25 21.18L47.11 21.16L47.97 21.15L48.83 21.18L49.68 21.23L50.53 21.30L51.38 21.40L52.21 21.52L53.05 21.67L53.87 21.84L54.69 22.04L55.50 22.26L56.31 22.50L57.10 22.77L57.88 23.06L58.65 23.37L59.41 23.70L60.16 24.06L60.89 24.44L61.62 24.83L62.32 25.25L63.02 25.69L63.69 26.15L64.36 26.62L65.00 27.11L65.63 27.63L66.24 28.15L66.84 28.70L67.42 29.26L67.98 29.84L68.51 30.43L69.04 31.03L69.54 31.65L70.02 32.29L70.48 32.93L70.92 33.59L71.34 34.26L71.74 34.93L72.11 35.62L72.47 36.32L72.80 37.02L73.11 37.74L73.40 38.46L73.67 39.18L73.91 39.91L74.13 40.65L74.33 41.39L74.51 42.14L74.66 42.88L74.80 43.63L74.90 44.38L74.99 45.14L75.05 45.89L75.09 46.64L75.11 47.39L75.11 48.14L75.08 48.89L75.03 49.63L74.96 50.37L74.87 51.10L74.76 51.83L74.62 52.56L74.46 53.27L74.29 53.98L74.09 54.69L73.87 55.38L73.63 56.07L73.38 56.74L73.10 57.41L72.80 58.07L72.49 58.71L72.16 59.35L71.81 59.97L71.44 60.58L71.05 61.17L70.65 61.76L70.24 62.32L69.80 62.88L69.36 63.42L68.90 63.94L68.42 64.45L67.93 64.94L67.43 65.42L66.91 65.88L66.39 66.32L65.85 66.75L65.30 67.16L64.74 67.55L64.17 67.92L63.59 68.28L63.00 68.61L62.41 68.93L61.81 69.23L61.20 69.51L60.58 69.77L59.96 70.01L59.34 70.23L58.71 70.43L58.07 70.62L57.44 70.78L56.80 70.92L56.16 71.05L55.51 71.15L54.87 71.24L54.23 71.30L53.58 71.35L52.94 71.38L52.30 71.38L51.66 71.37L51.03 71.34L50.39 71.29L49.76 71.22L49.14 71.14L48.52 71.03L47.91 70.91L47.30 70.77L46.70 70.61L46.10 70.43L45.52 70.24L44.94 70.03L44.37 69.80L43.80 69.56L43.25 69.30L42.71 69.03L42.18 68.74L41.66 68.43L41.15 68.12L40.65 67.78L40.16 67.44L39.68 67.08L39.22 66.71L38.77 66.32L38.34 65.93L37.92 65.52L37.51 65.10L37.11 64.67L36.73 64.23L36.37 63.79L36.02 63.33L35.68 62.86L35.36 62.39L35.06 61.90L34.77 61.42L34.49 60.92L34.24 60.42L34.00 59.91L33.77 59.40L33.56 58.88L33.37 58.36L33.19 57.83L33.04 57.30L32.89 56.77L32.77 56.24L32.66 55.71L32.56 55.17L32.49 54.64L32.42 54.10L32.38 53.56L32.35 53.03L32.34 52.50L32.34 51.97L32.36 51.44L32.40 50.91L32.45 50.39L32.52 49.87L32.60 49.36L32.70 48.85L32.81 48.34L32.94 47.84L33.08 47.35L33.23 46.87L33.40 46.39L33.58 45.91L33.78 45.45L33.99 44.99L34.21 44.54L34.44 44.11L34.69 43.68L34.95 43.25L35.22 42.84L35.50 42.44L35.79 42.05L36.09 41.67L36.40 41.30L36.73 40.94L37.06 40.60L43.53 45.30L43.33 45.45L43.14 45.61L42.96 45.78L42.77 45.96L42.59 46.14L42.42 46.33L42.25 46.53L42.08 46.73L41.92 46.94L41.77 47.16L41.62 47.38L41.48 47.61L41.35 47.85L41.22 48.09L41.10 48.34L40.98 48.59L40.87 48.85L40.77 49.11L40.68 49.38L40.59 49.65L40.52 49.93L40.45 50.21L40.39 50.50L40.34 50.79L40.30 51.08L40.26 51.38L40.24 51.68L40.22 51.98L40.22 52.28L40.22 52.59L40.23 52.90L40.26 53.21L40.29 53.52L40.33 53.83L40.38 54.14L40.45 54.45L40.52 54.77L40.60 55.08L40.69 55.39L40.80 55.70L40.91 56.01L41.04 56.31L41.17 56.62L41.31 56.92L41.47 57.22L41.63 57.52L41.81 57.81L41.99 58.10L42.19 58.38L42.39 58.66L42.61 58.94L42.83 59.21L43.06 59.47L43.31 59.73L43.56 59.99L43.82 60.23L44.09 60.47L44.37 60.70L44.66 60.93L44.95 61.15L45.26 61.36L45.57 61.56L45.89 61.75L46.22 61.93L46.56 62.11L46.90 62.27L47.25 62.43L47.60 62.57L47.96 62.71L48.33 62.83L48.70 62.95L49.08 63.05L49.47 63.14L49.85 63.22L50.25 63.29L50.64 63.35L51.04 63.39L51.44 63.43L51.85 63.45L52.26 63.46L52.67 63.46L53.08 63.44L53.50 63.41L53.91 63.37L54.33 63.31L54.74 63.25L55.16 63.17L55.57 63.07L55.99 62.97L56.40 62.85L56.81 62.72L57.22 62.57L57.62 62.41L58.02 62.24L58.42 62.06L58.82 61.86L59.21 61.65L59.59 61.42L59.97 61.19L60.35 60.94L60.72 60.68L61.08 60.41L61.44 60.12L61.78 59.82L62.13 59.51L62.46 59.19L62.78 58.86L63.10 58.52L63.40 58.16L63.70 57.80L63.99 57.42L64.26 57.04L64.53 56.64L64.79 56.24L65.03 55.82L65.26 55.40L65.48 54.97L65.69 54.53L65.88 54.08L66.07 53.62L66.24 53.16L66.39 52.69L66.53 52.21L66.66 51.73L66.78 51.24L66.88 50.75L66.96 50.25L67.03 49.75L67.09 49.24L67.13 48.73L67.15 48.22L67.16 47.70L67.16 47.18L67.14 46.67L67.10 46.14L67.05 45.62L66.98 45.10L66.89 44.58L66.79 44.06L66.67 43.54L66.54 43.02L66.39 42.51L66.23 41.99L66.05 41.49L65.85 40.98L65.63 40.48L65.41 39.98L65.16 39.49L64.90 39.01L64.62 38.53L64.33 38.05L64.03 37.59L63.70 37.13L63.37 36.68L63.02 36.24L62.65 35.81L62.27 35.39L61.88 34.98L61.47 34.57L61.05 34.18L60.62 33.81L60.17 33.44L59.71 33.08L59.24 32.74L58.76 32.41L58.26 32.10L57.76 31.80L57.24 31.51L56.72 31.24L56.18 30.98L55.64 30.74L55.08 30.51L54.52 30.30L53.95 30.11L53.37 29.93L52.78 29.77L52.19 29.62L51.59 29.50L50.99 29.39L50.38 29.30L49.77 29.22L49.15 29.17L48.53 29.13L47.91 29.12L47.28 29.12L46.66 29.14L46.03 29.18L45.40 29.23L44.77 29.31L44.14 29.41L43.51 29.52L42.89 29.65L42.26 29.81L41.64 29.98L41.03 30.17L40.41 30.38L39.80 30.61L39.20 30.86L38.60 31.13L38.01 31.41L37.43 31.72L36.85 32.04L36.28 32.38L35.72 32.74L35.17 33.12L34.63 33.51L34.10 33.92L33.58 34.35L33.07 34.80L32.58 35.26L32.09 35.74L31.62 36.23L31.17 36.74L30.72 37.26L30.29 37.80L29.88 38.35L29.48 38.92L29.10 39.50L28.74 40.09L28.39 40.70L28.06 41.31L27.74 41.94L27.45 42.58L27.17 43.23L26.91 43.89L26.67 44.56L26.45 45.24L26.25 45.92L26.07 46.62L25.91 47.32L25.77 48.03L25.66 48.74L25.56 49.46L25.48 50.18L25.43 50.91L25.40 51.64L25.38 52.37L25.40 53.11L25.43 53.85L25.48 54.58L25.56 55.32L25.66 56.06L25.78 56.79L25.93 57.53L26.09 58.26L26.28 58.99L26.49 59.71L26.72 60.43L26.98 61.15L27.26 61.85L27.56 62.56L27.88 63.25L28.22 63.94L28.58 64.61L28.97 65.28L29.37 65.94L29.80 66.59L30.24 67.22L30.71 67.85L31.19 68.46L31.70 69.06L32.22 69.65L32.77 70.22L33.33 70.77L33.91 71.31L34.50 71.84L35.12 72.34L35.75 72.83L36.39 73.31L37.05 73.76L37.73 74.20L38.42 74.61L39.12 75.01L39.84 75.38L40.57 75.74L41.31 76.07L42.07 76.39L42.83 76.68L43.61 76.95L44.39 77.19L45.19 77.42L45.99 77.62L46.80 77.79L47.62 77.95L48.44 78.07L49.27 78.18L50.10 78.26L50.94 78.31L51.78 78.34L52.63 78.35L53.47 78.33L54.32 78.28L55.17 78.21L56.01 78.12L56.86 78.00L57.70 77.85L58.54 77.68L59.38 77.48L60.21 77.26L61.04 77.01L61.86 76.73L62.68 76.43L63.49 76.11L64.29 75.76L65.08 75.39L65.86 74.99L66.63 74.57L67.39 74.13L68.14 73.66L68.88 73.16L69.60 72.65L70.31 72.11L71.00 71.55L71.68 70.97L72.34 70.37L72.99 69.75L73.62 69.10L74.23 68.44L74.82 67.75L75.39 67.05L75.95 66.33L76.48 65.59L76.99 64.84L77.48 64.07L77.95 63.28L78.39 62.47L78.81 61.66L79.21 60.82L79.59 59.98L79.94 59.12L80.26 58.25L80.56 57.37L80.83 56.47L81.08 55.57L81.30 54.66L81.50 53.74L81.66 52.82L81.80 51.88L81.92 50.94L82.00 50.00Z"/><path id="f5" d="M90.00 50.00L89.90 51.29L89.76 52.58L89.58 53.85L89.36 55.12L89.10 56.38L88.79 57.62L88.45 58.86L88.07 60.08L87.65 61.28L87.19 62.47L86.70 63.64L86.17 64.79L85.60 65.92L85.00 67.03L84.36 68.11L83.69 69.18L82.99 70.21L82.25 71.23L81.48 72.21L80.69 73.17L79.86 74.11L79.01 75.01L78.13 75.88L77.22 76.72L76.29 77.53L75.33 78.31L74.36 79.06L73.36 79.77L72.34 80.45L71.30 81.09L70.24 81.70L69.16 82.27L68.07 82.80L66.97 83.30L65.85 83.76L64.72 84.19L63.58 84.57L62.43 84.92L61.27 85.23L60.10 85.50L58.93 85.74L57.75 85.93L56.57 86.09L55.39 86.20L54.21 86.28L53.03 86.32L51.85 86.32L50.67 86.29L49.50 86.21L48.33 86.10L47.17 85.95L46.02 85.76L44.87 85.54L43.74 85.28L42.62 84.98L41.51 84.65L40.42 84.28L39.34 83.88L38.27 83.45L37.22 82.98L36.19 82.48L35.18 81.94L34.19 81.38L33.22 80.78L32.28 80.16L31.35 79.51L30.45 78.82L29.57 78.11L28.72 77.38L27.90 76.62L27.10 75.83L26.33 75.02L25.59 74.19L24.88 73.33L24.19 72.46L23.54 71.56L22.92 70.65L22.33 69.72L21.77 68.77L21.24 67.81L20.75 66.83L20.29 65.84L19.86 64.83L19.47 63.82L19.11 62.80L18.78 61.76L18.49 60.72L18.24 59.68L18.01 58.62L17.83 57.57L17.67 56.51L17.56 55.45L17.47 54.38L17.43 53.32L17.41 52.26L17.43 51.20L17.49 50.15L17.58 49.10L17.70 48.06L17.86 47.02L18.05 45.99L18.27 44.97L18.53 43.97L18.81 42.97L19.13 41.98L19.48 41.01L19.86 40.05L20.27 39.11L20.71 38.18L21.18 37.27L21.67 36.38L22.20 35.51L22.75 34.66L23.32 33.82L23.93 33.01L24.55 32.22L25.20 31.45L25.87 30.71L26.57 29.99L27.29 29.29L28.02 28.62L28.78 27.98L29.55 27.36L30.35 26.77L31.16 26.21L31.98 25.67L32.82 25.17L33.67 24.69L34.54 24.24L35.42 23.82L36.31 23.43L37.21 23.08L38.12 22.75L39.03 22.45L39.96 22.18L40.88 21.94L41.82 21.74L42.75 21.56L43.69 21.42L44.64 21.31L45.58 21.22L46.52 21.17L47.46 21.15L48.40 21.16L49.33 21.20L50.27 21.27L51.19 21.37L52.11 21.50L53.02 21.66L53.93 21.85L54.82 22.07L55.71 22.32L56.58 22.59L57.44 22.89L58.29 23.22L59.13 23.58L59.95 23.96L60.76 24.36L61.55 24.80L62.32 25.25L63.08 25.73L63.82 26.23L64.54 26.76L65.24 27.30L65.92 27.87L66.58 28.46L67.22 29.07L67.84 29.69L68.43 30.34L69.00 31.00L69.55 31.67L70.08 32.37L70.58 33.07L71.05 33.80L71.50 34.53L71.93 35.28L72.33 36.03L72.70 36.80L73.05 37.58L73.37 38.36L73.66 39.16L73.93 39.96L74.17 40.77L74.38 41.58L74.57 42.39L74.72 43.21L74.86 44.03L74.96 44.85L75.04 45.68L75.09 46.50L75.11 47.32L75.11 48.14L75.08 48.96L75.02 49.77L74.94 50.58L74.83 51.38L74.69 52.17L74.54 52.96L74.35 53.74L74.14 54.51L73.91 55.27L73.65 56.03L73.37 56.77L73.06 57.49L72.74 58.21L72.39 58.91L72.02 59.60L71.62 60.27L71.21 60.93L70.78 61.57L70.33 62.20L69.86 62.81L69.37 63.40L68.87 63.97L68.34 64.53L67.81 65.07L67.25 65.58L66.68 66.08L66.10 66.55L65.50 67.01L64.90 67.44L64.28 67.85L63.65 68.24L63.00 68.61L62.35 68.96L61.69 69.28L61.03 69.58L60.35 69.86L59.67 70.12L58.98 70.35L58.29 70.56L57.60 70.74L56.90 70.90L56.20 71.04L55.49 71.15L54.79 71.25L54.09 71.31L53.38 71.36L52.68 71.38L51.98 71.38L51.28 71.35L50.59 71.31L49.90 71.24L49.22 71.15L48.54 71.03L47.87 70.90L47.20 70.74L46.55 70.57L45.90 70.37L45.26 70.15L44.63 69.91L44.01 69.65L43.41 69.38L42.81 69.08L42.23 68.77L41.66 68.43L41.10 68.09L40.55 67.72L40.02 67.34L39.51 66.94L39.01 66.53L38.53 66.10L38.06 65.66L37.61 65.21L37.17 64.74L36.76 64.26L36.36 63.77L35.97 63.27L35.61 62.76L35.26 62.24L34.94 61.71L34.63 61.17L34.34 60.62L34.07 60.07L33.82 59.51L33.59 58.94L33.38 58.37L33.18 57.80L33.01 57.22L32.86 56.64L32.73 56.06L32.61 55.47L32.52 54.89L32.45 54.30L32.39 53.71L32.36 53.13L32.34 52.55L32.34 51.97L32.37 51.39L32.41 50.81L32.47 50.24L32.55 49.68L32.64 49.12L32.76 48.56L32.89 48.02L33.04 47.47L33.21 46.94L33.39 46.42L33.59 45.90L33.80 45.39L34.04 44.89L34.28 44.41L34.54 43.93L34.82 43.46L35.11 43.01L35.41 42.57L35.73 42.14L36.05 41.72L36.39 41.31L36.75 40.92L37.11 40.54L37.48 40.18L37.86 39.83L38.26 39.49L38.66 39.17L39.07 38.87L39.49 38.57L39.91 38.30L40.34 38.04L40.78 37.80L41.23 37.57L41.68 37.35L42.13 37.16L42.59 36.98L43.05 36.81L43.51 36.66L43.98 36.53L44.45 36.41L44.92 36.31L45.39 36.23L45.85 36.16L46.32 36.11L46.79 36.07L47.26 36.05L47.72 36.05L48.19 36.06L48.65 36.08L49.10 36.12L49.55 36.18L50.00 36.25L50.00 44.25L49.81 44.18L49.62 44.11L49.42 44.05L49.22 43.99L49.01 43.94L48.80 43.90L48.59 43.87L48.37 43.84L48.15 43.83L47.93 43.82L47.70 43.81L47.47 43.82L47.24 43.83L47.01 43.86L46.78 43.89L46.54 43.93L46.31 43.98L46.07 44.04L45.84 44.10L45.60 44.18L45.37 44.26L45.14 44.36L44.90 44.46L44.67 44.57L44.45 44.70L44.22 44.83L44.00 44.97L43.78 45.12L43.56 45.27L43.35 45.44L43.14 45.62L42.93 45.80L42.73 46.00L42.54 46.20L42.35 46.41L42.17 46.63L41.99 46.85L41.82 47.09L41.66 47.33L41.50 47.58L41.35 47.84L41.21 48.10L41.08 48.37L40.95 48.65L40.84 48.94L40.73 49.23L40.63 49.52L40.55 49.83L40.47 50.13L40.40 50.44L40.34 50.76L40.30 51.08L40.26 51.40L40.23 51.73L40.22 52.06L40.22 52.40L40.22 52.73L40.24 53.07L40.28 53.41L40.32 53.75L40.37 54.09L40.44 54.43L40.52 54.77L40.61 55.12L40.72 55.46L40.83 55.79L40.96 56.13L41.10 56.47L41.25 56.80L41.42 57.13L41.60 57.45L41.78 57.77L41.99 58.09L42.20 58.40L42.42 58.71L42.66 59.01L42.91 59.30L43.17 59.59L43.44 59.87L43.72 60.14L44.01 60.40L44.32 60.66L44.63 60.91L44.95 61.15L45.29 61.38L45.63 61.59L45.98 61.80L46.34 62.00L46.71 62.19L47.09 62.36L47.48 62.52L47.87 62.68L48.27 62.81L48.68 62.94L49.09 63.05L49.51 63.15L49.94 63.24L50.37 63.31L50.80 63.37L51.24 63.41L51.69 63.44L52.13 63.46L52.58 63.46L53.03 63.44L53.48 63.41L53.94 63.37L54.39 63.31L54.85 63.23L55.30 63.14L55.75 63.03L56.20 62.91L56.65 62.77L57.10 62.61L57.55 62.44L57.99 62.26L58.42 62.06L58.85 61.84L59.28 61.61L59.70 61.36L60.12 61.10L60.52 60.82L60.92 60.53L61.31 60.22L61.70 59.90L62.07 59.56L62.44 59.21L62.79 58.85L63.14 58.47L63.47 58.08L63.79 57.68L64.10 57.27L64.40 56.84L64.68 56.40L64.95 55.95L65.21 55.49L65.45 55.02L65.68 54.54L65.90 54.05L66.09 53.55L66.28 53.04L66.44 52.53L66.59 52.00L66.73 51.47L66.84 50.93L66.94 50.39L67.02 49.84L67.08 49.29L67.13 48.73L67.16 48.17L67.16 47.61L67.15 47.04L67.13 46.47L67.08 45.90L67.01 45.33L66.92 44.76L66.82 44.19L66.69 43.62L66.55 43.05L66.39 42.49L66.21 41.93L66.00 41.37L65.78 40.82L65.54 40.28L65.29 39.74L65.01 39.20L64.71 38.67L64.40 38.16L64.07 37.65L63.71 37.14L63.35 36.65L62.96 36.17L62.56 35.70L62.14 35.24L61.70 34.80L61.25 34.37L60.78 33.95L60.30 33.54L59.80 33.15L59.28 32.77L58.76 32.41L58.22 32.07L57.66 31.74L57.10 31.43L56.52 31.14L55.93 30.86L55.32 30.61L54.71 30.37L54.09 30.15L53.46 29.95L52.82 29.78L52.17 29.62L51.52 29.48L50.86 29.37L50.19 29.27L49.52 29.20L48.84 29.15L48.16 29.12L47.48 29.11L46.79 29.13L46.11 29.17L45.42 29.23L44.73 29.32L44.04 29.42L43.36 29.55L42.67 29.71L41.99 29.88L41.31 30.08L40.64 30.30L39.97 30.55L39.31 30.81L38.66 31.10L38.01 31.41L37.37 31.75L36.74 32.10L36.12 32.48L35.51 32.88L34.92 33.30L34.33 33.74L33.76 34.20L33.20 34.68L32.65 35.18L32.12 35.70L31.61 36.24L31.11 36.80L30.63 37.38L30.16 37.97L29.72 38.58L29.29 39.21L28.88 39.85L28.50 40.50L28.13 41.18L27.78 41.86L27.46 42.56L27.15 43.27L26.87 43.99L26.62 44.73L26.38 45.47L26.17 46.23L25.99 46.99L25.82 47.76L25.69 48.54L25.58 49.32L25.49 50.11L25.43 50.91L25.39 51.71L25.39 52.51L25.40 53.32L25.45 54.12L25.52 54.93L25.61 55.74L25.74 56.54L25.89 57.34L26.06 58.15L26.27 58.94L26.50 59.73L26.76 60.52L27.04 61.30L27.35 62.07L27.68 62.84L28.04 63.59L28.43 64.34L28.84 65.07L29.28 65.80L29.74 66.51L30.23 67.21L30.74 67.89L31.27 68.56L31.83 69.21L32.41 69.84L33.01 70.46L33.63 71.06L34.28 71.64L34.94 72.20L35.63 72.74L36.33 73.26L37.05 73.76L37.79 74.24L38.55 74.69L39.32 75.12L40.11 75.52L40.92 75.90L41.74 76.25L42.57 76.58L43.41 76.88L44.27 77.16L45.14 77.40L46.02 77.62L46.90 77.81L47.80 77.98L48.70 78.11L49.61 78.21L50.52 78.29L51.44 78.33L52.36 78.35L53.29 78.34L54.21 78.29L55.14 78.22L56.07 78.11L56.99 77.97L57.91 77.81L58.83 77.61L59.74 77.38L60.65 77.13L61.56 76.84L62.45 76.52L63.34 76.17L64.21 75.80L65.08 75.39L65.93 74.95L66.78 74.49L67.60 74.00L68.42 73.48L69.22 72.93L70.00 72.35L70.77 71.75L71.51 71.12L72.24 70.46L72.95 69.79L73.64 69.08L74.30 68.35L74.95 67.60L75.57 66.83L76.17 66.03L76.74 65.22L77.28 64.38L77.80 63.53L78.30 62.65L78.76 61.76L79.20 60.85L79.61 59.92L79.99 58.98L80.34 58.03L80.66 57.06L80.94 56.08L81.20 55.09L81.43 54.09L81.62 53.08L81.78 52.06L81.91 51.03L82.00 50.00Z"/><path id="f6" d="M90.00 50.00L89.89 51.40L89.73 52.79L89.53 54.18L89.27 55.55L88.97 56.91L88.62 58.26L88.23 59.59L87.79 60.90L87.30 62.20L86.77 63.47L86.20 64.72L85.58 65.95L84.93 67.15L84.23 68.33L83.49 69.47L82.72 70.59L81.90 71.68L81.06 72.74L80.17 73.76L79.26 74.75L78.31 75.71L77.33 76.63L76.32 77.51L75.28 78.36L74.22 79.16L73.13 79.93L72.01 80.65L70.88 81.34L69.72 81.98L68.54 82.58L67.35 83.13L66.14 83.65L64.91 84.12L63.68 84.54L62.43 84.92L61.17 85.26L59.90 85.55L58.63 85.79L57.35 85.99L56.07 86.14L54.78 86.25L53.50 86.31L52.22 86.33L50.94 86.30L49.67 86.23L48.40 86.11L47.14 85.95L45.89 85.74L44.65 85.49L43.42 85.20L42.21 84.86L41.01 84.49L39.83 84.07L38.66 83.61L37.52 83.12L36.40 82.58L35.30 82.01L34.22 81.40L33.17 80.75L32.14 80.07L31.14 79.35L30.17 78.60L29.23 77.82L28.32 77.01L27.44 76.17L26.59 75.30L25.78 74.40L25.00 73.48L24.25 72.53L23.54 71.56L22.87 70.57L22.23 69.56L21.63 68.52L21.07 67.47L20.55 66.41L20.06 65.32L19.62 64.23L19.22 63.12L18.85 62.00L18.53 60.87L18.25 59.74L18.01 58.59L17.81 57.45L17.65 56.30L17.53 55.14L17.45 53.99L17.42 52.84L17.42 51.69L17.46 50.54L17.55 49.40L17.67 48.27L17.84 47.14L18.04 46.02L18.28 44.92L18.56 43.82L18.88 42.74L19.24 41.68L19.63 40.63L20.06 39.59L20.52 38.58L21.01 37.58L21.54 36.61L22.11 35.66L22.70 34.73L23.32 33.82L23.98 32.94L24.66 32.09L25.37 31.26L26.11 30.46L26.87 29.69L27.66 28.95L28.47 28.23L29.31 27.55L30.16 26.91L31.04 26.29L31.93 25.70L32.85 25.15L33.77 24.64L34.72 24.16L35.67 23.71L36.64 23.30L37.62 22.92L38.61 22.58L39.61 22.28L40.62 22.01L41.63 21.78L42.65 21.58L43.67 21.42L44.69 21.30L45.71 21.21L46.74 21.17L47.76 21.15L48.77 21.17L49.79 21.23L50.80 21.33L51.80 21.46L52.79 21.62L53.77 21.82L54.74 22.05L55.71 22.32L56.65 22.62L57.59 22.95L58.51 23.31L59.41 23.70L60.30 24.13L61.17 24.58L62.02 25.07L62.84 25.58L63.65 26.12L64.44 26.68L65.20 27.27L65.94 27.89L66.66 28.53L67.35 29.19L68.01 29.87L68.65 30.58L69.26 31.30L69.84 32.05L70.39 32.81L70.92 33.59L71.41 34.38L71.88 35.19L72.31 36.01L72.72 36.85L73.09 37.69L73.44 38.55L73.75 39.41L74.03 40.28L74.27 41.16L74.49 42.04L74.67 42.93L74.82 43.82L74.94 44.71L75.03 45.61L75.09 46.50L75.11 47.39L75.10 48.28L75.07 49.17L75.00 50.05L74.89 50.92L74.76 51.79L74.60 52.65L74.41 53.50L74.19 54.34L73.94 55.17L73.66 55.98L73.36 56.79L73.03 57.58L72.67 58.35L72.28 59.11L71.87 59.85L71.44 60.58L70.98 61.28L70.50 61.97L70.00 62.64L69.47 63.28L68.92 63.91L68.36 64.51L67.77 65.10L67.17 65.65L66.55 66.19L65.91 66.70L65.26 67.18L64.60 67.64L63.92 68.08L63.23 68.49L62.52 68.87L61.81 69.23L61.08 69.56L60.35 69.86L59.61 70.14L58.87 70.38L58.11 70.61L57.36 70.80L56.60 70.96L55.84 71.10L55.07 71.21L54.31 71.30L53.54 71.35L52.78 71.38L52.02 71.38L51.26 71.35L50.51 71.30L49.76 71.22L49.02 71.12L48.29 70.99L47.56 70.83L46.85 70.65L46.14 70.44L45.44 70.21L44.76 69.96L44.08 69.68L43.42 69.38L42.78 69.06L42.14 68.72L41.53 68.36L40.93 67.97L40.34 67.57L39.77 67.15L39.22 66.71L38.69 66.25L38.18 65.78L37.68 65.29L37.21 64.78L36.76 64.26L36.32 63.73L35.91 63.18L35.52 62.62L35.15 62.06L34.80 61.48L34.48 60.89L34.18 60.29L33.90 59.69L33.64 59.07L33.41 58.46L33.19 57.83L33.01 57.20L32.84 56.57L32.70 55.94L32.58 55.31L32.49 54.67L32.42 54.03L32.37 53.40L32.34 52.76L32.34 52.13L32.36 51.50L32.40 50.88L32.47 50.26L32.55 49.65L32.66 49.04L32.79 48.44L32.94 47.84L33.10 47.26L33.29 46.68L33.50 46.12L33.73 45.56L33.97 45.02L34.24 44.49L34.52 43.97L34.82 43.46L35.13 42.97L35.46 42.49L35.81 42.03L36.17 41.58L36.54 41.14L36.93 40.72L37.33 40.32L37.74 39.94L38.17 39.57L38.60 39.22L39.05 38.88L39.50 38.57L39.96 38.27L40.43 37.99L40.91 37.73L41.39 37.49L41.88 37.26L42.38 37.06L42.88 36.87L43.38 36.70L43.89 36.56L44.39 36.43L44.90 36.32L45.41 36.23L45.92 36.15L46.43 36.10L46.94 36.07L47.45 36.05L47.95 36.05L48.45 36.07L48.95 36.11L49.44 36.16L49.92 36.24L50.40 36.33L50.88 36.43L51.35 36.56L51.81 36.69L52.26 36.85L52.70 37.02L53.14 37.20L53.56 37.40L53.97 37.61L54.38 37.84L54.77 38.08L55.15 38.33L55.52 38.59L55.88 38.87L56.23 39.15L56.56 39.45L56.88 39.76L57.18 40.07L57.48 40.40L57.76 40.73L58.02 41.07L58.27 41.42L58.51 41.77L58.73 42.13L58.93 42.50L59.13 42.87L59.30 43.24L52.83 47.94L52.82 47.79L52.81 47.64L52.79 47.49L52.76 47.33L52.72 47.18L52.67 47.02L52.62 46.87L52.56 46.71L52.49 46.55L52.42 46.40L52.33 46.24L52.24 46.09L52.14 45.94L52.04 45.79L51.92 45.65L51.80 45.51L51.67 45.37L51.53 45.23L51.38 45.10L51.23 44.97L51.07 44.85L50.90 44.73L50.73 44.62L50.55 44.52L50.36 44.42L50.17 44.32L49.97 44.24L49.76 44.16L49.55 44.09L49.33 44.02L49.11 43.97L48.89 43.92L48.66 43.88L48.42 43.85L48.18 43.83L47.94 43.82L47.70 43.81L47.45 43.82L47.20 43.84L46.95 43.87L46.69 43.90L46.44 43.95L46.18 44.01L45.93 44.08L45.67 44.16L45.42 44.25L45.16 44.35L44.91 44.46L44.66 44.58L44.41 44.71L44.17 44.86L43.93 45.01L43.69 45.18L43.45 45.35L43.23 45.54L43.00 45.74L42.78 45.95L42.57 46.16L42.36 46.39L42.17 46.63L41.97 46.87L41.79 47.13L41.61 47.39L41.45 47.67L41.29 47.95L41.14 48.24L41.00 48.54L40.87 48.85L40.75 49.16L40.65 49.48L40.55 49.81L40.47 50.14L40.39 50.48L40.33 50.82L40.28 51.17L40.25 51.53L40.23 51.88L40.22 52.24L40.22 52.61L40.24 52.97L40.27 53.34L40.31 53.71L40.37 54.08L40.45 54.45L40.53 54.82L40.63 55.19L40.75 55.56L40.88 55.93L41.03 56.29L41.19 56.66L41.36 57.01L41.55 57.37L41.75 57.72L41.97 58.06L42.20 58.40L42.44 58.73L42.70 59.06L42.97 59.37L43.26 59.68L43.56 59.99L43.87 60.28L44.19 60.56L44.53 60.83L44.88 61.09L45.24 61.34L45.61 61.58L45.99 61.81L46.39 62.02L46.79 62.22L47.20 62.41L47.62 62.58L48.05 62.74L48.49 62.88L48.94 63.01L49.39 63.13L49.85 63.22L50.32 63.30L50.79 63.37L51.27 63.42L51.75 63.45L52.23 63.46L52.72 63.45L53.21 63.43L53.70 63.39L54.20 63.33L54.69 63.26L55.18 63.16L55.68 63.05L56.17 62.92L56.65 62.77L57.14 62.60L57.62 62.41L58.10 62.21L58.57 61.98L59.04 61.74L59.50 61.48L59.95 61.20L60.40 60.91L60.83 60.59L61.26 60.26L61.68 59.92L62.08 59.55L62.48 59.17L62.86 58.78L63.23 58.36L63.59 57.94L63.93 57.49L64.26 57.04L64.58 56.57L64.88 56.08L65.16 55.59L65.43 55.08L65.68 54.55L65.91 54.02L66.12 53.48L66.32 52.93L66.49 52.36L66.65 51.79L66.78 51.21L66.90 50.62L67.00 50.03L67.07 49.43L67.12 48.83L67.15 48.22L67.16 47.61L67.15 46.99L67.12 46.37L67.06 45.75L66.98 45.13L66.88 44.51L66.76 43.90L66.61 43.28L66.44 42.67L66.25 42.06L66.03 41.45L65.80 40.85L65.54 40.26L65.25 39.67L64.95 39.10L64.62 38.53L64.28 37.97L63.91 37.42L63.52 36.88L63.11 36.35L62.67 35.84L62.22 35.34L61.75 34.85L61.26 34.38L60.75 33.92L60.23 33.48L59.68 33.06L59.12 32.66L58.54 32.27L57.95 31.91L57.34 31.56L56.72 31.24L56.08 30.93L55.43 30.65L54.77 30.39L54.09 30.15L53.41 29.94L52.71 29.75L52.01 29.58L51.29 29.44L50.57 29.32L49.85 29.23L49.11 29.17L48.38 29.13L47.64 29.11L46.89 29.13L46.15 29.17L45.40 29.23L44.65 29.33L43.90 29.45L43.16 29.59L42.42 29.77L41.68 29.97L40.95 30.20L40.22 30.45L39.50 30.73L38.79 31.04L38.08 31.38L37.39 31.74L36.71 32.12L36.04 32.54L35.38 32.97L34.73 33.44L34.10 33.92L33.48 34.43L32.89 34.97L32.30 35.52L31.74 36.10L31.19 36.70L30.67 37.33L30.16 37.97L29.68 38.63L29.22 39.32L28.78 40.02L28.37 40.73L27.98 41.47L27.61 42.22L27.27 42.99L26.96 43.77L26.67 44.56L26.41 45.37L26.18 46.18L25.98 47.01L25.81 47.85L25.66 48.69L25.55 49.55L25.46 50.41L25.41 51.27L25.39 52.14L25.39 53.02L25.43 53.89L25.50 54.77L25.60 55.64L25.73 56.52L25.90 57.39L26.09 58.26L26.32 59.12L26.58 59.98L26.87 60.83L27.19 61.68L27.54 62.51L27.92 63.34L28.33 64.15L28.77 64.95L29.24 65.74L29.74 66.51L30.27 67.26L30.83 68.00L31.41 68.73L32.02 69.43L32.66 70.11L33.33 70.77L34.02 71.41L34.73 72.03L35.47 72.62L36.23 73.19L37.01 73.73L37.81 74.25L38.64 74.74L39.48 75.20L40.34 75.63L41.22 76.03L42.12 76.41L43.03 76.75L43.95 77.06L44.89 77.34L45.84 77.58L46.80 77.79L47.77 77.97L48.75 78.12L49.74 78.23L50.73 78.30L51.73 78.34L52.73 78.35L53.74 78.32L54.74 78.25L55.75 78.15L56.75 78.01L57.75 77.84L58.75 77.63L59.74 77.38L60.73 77.10L61.71 76.79L62.68 76.43L63.64 76.05L64.59 75.63L65.52 75.17L66.44 74.68L67.35 74.15L68.23 73.60L69.10 73.01L69.96 72.38L70.79 71.73L71.60 71.05L72.39 70.33L73.15 69.59L73.89 68.81L74.60 68.01L75.29 67.19L75.95 66.33L76.58 65.45L77.18 64.55L77.75 63.62L78.28 62.68L78.79 61.71L79.26 60.72L79.70 59.71L80.10 58.69L80.47 57.64L80.80 56.59L81.10 55.52L81.35 54.43L81.57 53.34L81.75 52.23L81.90 51.12L82.00 50.00Z"/></defs><rect class="bg" width="100%" height="100%" fill="#ffffff"/><text class="t" x="24" y="42">ONE PARAMETER — TURNS OF THE STRIP</text><text class="s" x="24" y="70">ZERO TURNS GIVES THE SLOTTED PIN. THE MARK IS spina(turns, band, gap).</text><rect class="box" x="24" y="100" width="168" height="168"/><use href="#f0" class="ink" transform="translate(38,114) scale(1.4000) rotate(0.0 50 50)"/><text class="n" x="24" y="296">SLOTTED</text><rect class="box" x="208" y="100" width="168" height="168"/><use href="#f1" class="ink" transform="translate(222,114) scale(1.4000) rotate(135.0 50 50)"/><text class="n" x="208" y="296">1.15</text><rect class="box" x="392" y="100" width="168" height="168"/><use href="#f2" class="ink" transform="translate(406,114) scale(1.4000) rotate(135.0 50 50)"/><text class="n" x="392" y="296">1.30</text><rect class="hi" x="571" y="95" width="178" height="178"/><rect class="box" x="576" y="100" width="168" height="168"/><use href="#f3" class="ink" transform="translate(590,114) scale(1.4000) rotate(135.0 50 50)"/><text class="n" x="576" y="296" fill="#bc4a34">1.45  ←</text><rect class="box" x="760" y="100" width="168" height="168"/><use href="#f4" class="ink" transform="translate(774,114) scale(1.4000) rotate(135.0 50 50)"/><text class="n" x="760" y="296">1.60</text><rect class="box" x="944" y="100" width="168" height="168"/><use href="#f5" class="ink" transform="translate(958,114) scale(1.4000) rotate(135.0 50 50)"/><text class="n" x="944" y="296">1.75</text><rect class="box" x="1128" y="100" width="168" height="168"/><use href="#f6" class="ink" transform="translate(1142,114) scale(1.4000) rotate(135.0 50 50)"/><text class="n" x="1128" y="296">1.90</text></svg>
